<svg width="121" height="41" viewBox="0 0 121 41" fill="none" xmlns="http://www.w3.org/2000/svg">
<rect x="1.05859" y="0.930664" width="119" height="39" rx="5.5" fill="white"/>
<rect x="1.05859" y="0.930664" width="119" height="39" rx="5.5" stroke="black"/>
<path d="M25.2631 21.1939C25.2752 20.274 25.5255 19.372 25.9906 18.5719C26.4558 17.7718 27.1206 17.0996 27.9234 16.6178C27.4134 15.9067 26.7407 15.3216 25.9585 14.9088C25.1764 14.496 24.3065 14.2669 23.4178 14.2397C21.5221 14.0455 19.6844 15.3472 18.7184 15.3472C17.7337 15.3472 16.2464 14.259 14.6448 14.2912C13.6088 14.3239 12.5992 14.618 11.7143 15.1449C10.8294 15.6717 10.0993 16.4134 9.59533 17.2977C7.41211 20.9881 9.0406 26.4117 11.132 29.3948C12.1783 30.8555 13.4012 32.4871 15.0014 32.4293C16.5672 32.3659 17.152 31.4544 19.0421 31.4544C20.9147 31.4544 21.4633 32.4293 23.096 32.3925C24.7762 32.3659 25.8348 30.9253 26.8445 29.4507C27.5963 28.4099 28.1748 27.2596 28.5586 26.0424C27.5824 25.6393 26.7494 24.9646 26.1634 24.1024C25.5773 23.2402 25.2642 22.2287 25.2631 21.1939Z" fill="black"/>
<path d="M22.1787 12.2778C23.0948 11.2041 23.5461 9.82402 23.4368 8.43066C22.0372 8.57418 20.7443 9.22726 19.8158 10.2598C19.3619 10.7642 19.0142 11.351 18.7926 11.9867C18.5711 12.6223 18.4801 13.2944 18.5247 13.9645C19.2248 13.9715 19.9174 13.8234 20.5503 13.5312C21.1832 13.239 21.74 12.8105 22.1787 12.2778Z" fill="black"/>
<path d="M37.3496 8.93213H39.4194C41.208 8.93213 42.0781 9.99561 42.0781 11.9248C42.0781 13.854 41.1992 14.9307 39.4194 14.9307H37.3496V8.93213ZM38.3472 9.77148V14.0913H39.3096C40.4961 14.0913 41.0542 13.375 41.0542 11.938C41.0542 10.4922 40.4917 9.77148 39.3096 9.77148H38.3472ZM45.2334 10.2065C46.4463 10.2065 47.2944 10.9932 47.2944 12.2983V12.9004C47.2944 14.2495 46.4463 15.0098 45.2334 15.0098C44.0029 15.0098 43.1636 14.2583 43.1636 12.9048V12.3027C43.1636 11.0327 44.0161 10.2065 45.2334 10.2065ZM45.2378 10.9932C44.5435 10.9932 44.1479 11.5732 44.1479 12.3511V12.8696C44.1479 13.6475 44.5171 14.2231 45.2378 14.2231C45.9497 14.2231 46.3145 13.6519 46.3145 12.8696V12.3511C46.3145 11.5732 45.9321 10.9932 45.2378 10.9932ZM54.4575 10.2856L53.2358 14.9307H52.2427L51.2715 11.5029H51.2451L50.2915 14.9307H49.2939L48.0195 10.2856H49.0698L49.8169 13.8276H49.8608L50.7969 10.2856H51.7153L52.6777 13.8276H52.7217L53.4819 10.2856H54.4575ZM55.4243 14.9307V10.2856H56.3823V11.1206H56.4307C56.5493 10.7559 56.8877 10.2153 57.8281 10.2153C58.7642 10.2153 59.3926 10.7339 59.3926 11.793V14.9307H58.417V12.0786C58.417 11.3711 58.0479 11.0459 57.4985 11.0459C56.7778 11.0459 56.3999 11.5996 56.3999 12.3511V14.9307H55.4243ZM60.8691 14.9307V8.61572H61.8447V14.9307H60.8691ZM65.1934 10.2065C66.4062 10.2065 67.2544 10.9932 67.2544 12.2983V12.9004C67.2544 14.2495 66.4062 15.0098 65.1934 15.0098C63.9629 15.0098 63.1235 14.2583 63.1235 12.9048V12.3027C63.1235 11.0327 63.9761 10.2065 65.1934 10.2065ZM65.1978 10.9932C64.5034 10.9932 64.1079 11.5732 64.1079 12.3511V12.8696C64.1079 13.6475 64.4771 14.2231 65.1978 14.2231C65.9097 14.2231 66.2744 13.6519 66.2744 12.8696V12.3511C66.2744 11.5732 65.8921 10.9932 65.1978 10.9932ZM69.7812 15.001C68.8804 15.001 68.2607 14.4473 68.2607 13.5815C68.2607 12.7598 68.832 12.2061 69.9043 12.2061H71.0776V11.771C71.0776 11.2393 70.7393 10.9888 70.2031 10.9888C69.6758 10.9888 69.4385 11.2085 69.3638 11.5161H68.4365C68.4937 10.7383 69.0781 10.2153 70.2339 10.2153C71.2271 10.2153 72.0488 10.6284 72.0488 11.7842V14.9307H71.1216V14.3286H71.0776C70.8711 14.6846 70.4668 15.001 69.7812 15.001ZM70.0845 14.2451C70.6382 14.2451 71.0776 13.8672 71.0776 13.3618V12.8608H70.0581C69.4912 12.8608 69.2407 13.1465 69.2407 13.5332C69.2407 14.0166 69.645 14.2451 70.0845 14.2451ZM75.0547 10.2241C75.7095 10.2241 76.2104 10.5142 76.3906 10.9844H76.439V8.61572H77.4146V14.9307H76.4653V14.188H76.417C76.2764 14.6582 75.7183 14.9922 75.0415 14.9922C73.9736 14.9922 73.2793 14.2319 73.2793 13.0059V12.2104C73.2793 10.9844 73.9868 10.2241 75.0547 10.2241ZM75.3271 11.0239C74.6768 11.0239 74.2725 11.5073 74.2725 12.3511V12.8608C74.2725 13.709 74.6812 14.1924 75.3491 14.1924C76.0083 14.1924 76.439 13.7134 76.439 12.9224V12.2192C76.439 11.5029 75.9688 11.0239 75.3271 11.0239ZM82.7715 10.2065C83.9844 10.2065 84.8325 10.9932 84.8325 12.2983V12.9004C84.8325 14.2495 83.9844 15.0098 82.7715 15.0098C81.541 15.0098 80.7017 14.2583 80.7017 12.9048V12.3027C80.7017 11.0327 81.5542 10.2065 82.7715 10.2065ZM82.7759 10.9932C82.0815 10.9932 81.686 11.5732 81.686 12.3511V12.8696C81.686 13.6475 82.0552 14.2231 82.7759 14.2231C83.4878 14.2231 83.8525 13.6519 83.8525 12.8696V12.3511C83.8525 11.5732 83.4702 10.9932 82.7759 10.9932ZM86.0894 14.9307V10.2856H87.0474V11.1206H87.0957C87.2144 10.7559 87.5527 10.2153 88.4932 10.2153C89.4292 10.2153 90.0576 10.7339 90.0576 11.793V14.9307H89.082V12.0786C89.082 11.3711 88.7129 11.0459 88.1636 11.0459C87.4429 11.0459 87.0649 11.5996 87.0649 12.3511V14.9307H86.0894ZM93.8325 10.3164V9.15625H94.7861V10.3164H95.8276V11.0811H94.7861V13.5464C94.7861 14.0518 94.9751 14.1924 95.498 14.1924C95.6299 14.1924 95.8057 14.1836 95.8804 14.1748V14.9219C95.8013 14.9351 95.4761 14.9614 95.2563 14.9614C94.127 14.9614 93.8193 14.5571 93.8193 13.6255V11.0811H93.1118V10.3164H93.8325ZM97.0581 14.9307V8.61572H98.0293V11.1206H98.0776C98.1787 10.791 98.5566 10.2153 99.4883 10.2153C100.394 10.2153 101.04 10.7383 101.04 11.7974V14.9307H100.068V12.083C100.068 11.3755 99.6772 11.0459 99.1235 11.0459C98.4248 11.0459 98.0293 11.5952 98.0293 12.3511V14.9307H97.0581ZM104.313 15.0098C103.048 15.0098 102.261 14.2319 102.261 12.9224V12.2939C102.261 10.9756 103.123 10.2065 104.256 10.2065C105.421 10.2065 106.243 11.0151 106.243 12.2939V12.8389H103.228V13.0674C103.228 13.7354 103.624 14.2275 104.309 14.2275C104.819 14.2275 105.17 13.9858 105.236 13.6958H106.19C106.133 14.2319 105.566 15.0098 104.313 15.0098ZM103.228 12.2017H105.289V12.1401C105.289 11.4414 104.88 10.9756 104.261 10.9756C103.641 10.9756 103.228 11.4414 103.228 12.1401V12.2017Z" fill="black"/>
<path d="M38.7646 30.9307H36.7344L40.8652 18.9336H43.0977L47.2197 30.9307H45.1104L44.0469 27.6084H39.8369L38.7646 30.9307ZM41.9902 21.0078H41.9111L40.2852 26.0791H43.5986L41.9902 21.0078ZM52.823 31.0625C51.6189 31.0625 50.7048 30.4912 50.2126 29.6387H50.1423V34.0156H48.1911V21.6406H50.0896V23.0029H50.1599C50.6696 22.1152 51.6189 21.5176 52.8669 21.5176C54.9499 21.5176 56.4353 23.0908 56.4353 25.8682V26.6943C56.4353 29.4541 54.9675 31.0625 52.823 31.0625ZM52.3747 29.4541C53.614 29.4541 54.4577 28.4609 54.4577 26.5889V25.9385C54.4577 24.1367 53.6667 23.1084 52.3396 23.1084C50.9773 23.1084 50.1247 24.2158 50.1247 25.9297V26.5889C50.1247 28.3467 50.9861 29.4541 52.3747 29.4541ZM62.7416 31.0625C61.5375 31.0625 60.6235 30.4912 60.1313 29.6387H60.061V34.0156H58.1098V21.6406H60.0082V23.0029H60.0786C60.5883 22.1152 61.5375 21.5176 62.7856 21.5176C64.8686 21.5176 66.3539 23.0908 66.3539 25.8682V26.6943C66.3539 29.4541 64.8862 31.0625 62.7416 31.0625ZM62.2934 29.4541C63.5327 29.4541 64.3764 28.4609 64.3764 26.5889V25.9385C64.3764 24.1367 63.5854 23.1084 62.2582 23.1084C60.8959 23.1084 60.0434 24.2158 60.0434 25.9297V26.5889C60.0434 28.3467 60.9047 29.4541 62.2934 29.4541ZM70.3973 27.5996H72.3485C72.4364 28.6367 73.3505 29.5244 75.0468 29.5244C76.6024 29.5244 77.5253 28.7949 77.5253 27.6611C77.5253 26.7471 76.91 26.2549 75.6268 25.9473L73.6581 25.4551C72.1112 25.0947 70.7225 24.1719 70.7225 22.2207C70.7225 19.9268 72.7264 18.6699 75.0555 18.6699C77.3846 18.6699 79.327 19.9268 79.371 22.168H77.455C77.3671 21.1484 76.5848 20.3047 75.0292 20.3047C73.6581 20.3047 72.7264 20.9551 72.7264 22.0713C72.7264 22.8535 73.2714 23.416 74.3876 23.6709L76.3475 24.1543C78.1493 24.5938 79.5204 25.4463 79.5204 27.4854C79.5204 29.8408 77.6132 31.168 74.8973 31.168C71.5575 31.168 70.4413 29.2168 70.3973 27.5996ZM81.898 21.6406V19.3818H83.8141V21.6406H85.6246V23.2051H83.8141V28.1621C83.8141 29.1729 84.192 29.4541 85.2379 29.4541C85.4049 29.4541 85.5631 29.4541 85.6773 29.4365V30.9307C85.5191 30.957 85.15 30.9922 84.7545 30.9922C82.4957 30.9922 81.8717 30.1836 81.8717 28.3203V23.2051H80.5885V21.6406H81.898ZM90.8939 21.4824C93.5657 21.4824 95.0159 23.3633 95.0159 25.8945V26.6416C95.0159 29.2607 93.5745 31.0889 90.8939 31.0889C88.2132 31.0889 86.7542 29.2607 86.7542 26.6416V25.8945C86.7542 23.3721 88.222 21.4824 90.8939 21.4824ZM90.8939 23.0469C89.4437 23.0469 88.723 24.2334 88.723 25.9209V26.6328C88.723 28.2939 89.4349 29.5156 90.8939 29.5156C92.3529 29.5156 93.056 28.3027 93.056 26.6328V25.9209C93.056 24.2246 92.3441 23.0469 90.8939 23.0469ZM96.6641 30.9307V21.6406H98.6153V22.8623H98.6856C98.9229 22.2822 99.6172 21.5088 100.909 21.5088C101.164 21.5088 101.384 21.5264 101.568 21.5615V23.2842C101.401 23.2402 101.059 23.2139 100.733 23.2139C99.169 23.2139 98.6416 24.1807 98.6416 25.4287V30.9307H96.6641ZM106.302 31.0889C103.814 31.0889 102.232 29.4453 102.232 26.6943V25.7539C102.232 23.1611 103.779 21.4824 106.222 21.4824C108.701 21.4824 110.195 23.2227 110.195 25.8418V26.7295H104.157V26.9492C104.157 28.5137 105.001 29.5508 106.328 29.5508C107.321 29.5508 107.998 29.0586 108.235 28.2588H110.09C109.808 29.7617 108.595 31.0889 106.302 31.0889ZM104.157 25.3672H108.288V25.3496C108.288 24.0312 107.47 22.9941 106.231 22.9941C104.974 22.9941 104.157 24.0312 104.157 25.3496V25.3672Z" fill="black"/>
</svg>
