<svg width="1192" height="569" viewBox="0 0 1192 569" fill="none" xmlns="http://www.w3.org/2000/svg">
<path d="M69.1123 1.80908C80.9915 1.74635 92.6836 4.8013 103.018 10.6665V10.6675L206.675 69.8491L206.676 69.8501L637.208 315.276L500.151 393.148L140.444 187.499L138.142 186.182V792.57L140.484 791.134L316.958 682.982C324.09 690.445 332.138 696.976 340.912 702.422L340.92 702.427L442.56 764.708L105.304 971.689C94.4961 978.321 82.0399 981.766 69.3643 981.627H69.3398C57.7612 981.686 46.3701 978.712 36.291 973.009L36.2842 973.005L35.3018 972.446C25.5321 966.772 17.3321 958.746 11.4502 949.098L10.8691 948.128C4.76552 937.727 1.54362 925.883 1.53906 913.819V69.7368C1.53906 58.2276 4.46598 46.9073 10.0352 36.8481L10.583 35.8784C16.5077 25.5753 25.0271 17.0112 35.2988 11.0327C45.5708 5.05415 57.2275 1.87191 69.1123 1.80908Z" stroke="url(#paint0_linear_2154_485)" stroke-width="3.078"/>
<path d="M1122.2 118.46H1122.2C1134.15 118.437 1145.89 121.578 1156.22 127.56C1166.48 133.61 1174.97 142.254 1180.84 152.616C1186.52 162.658 1189.55 173.983 1189.64 185.507V1030.84C1189.63 1042.9 1186.4 1054.75 1180.29 1065.16H1180.29C1174.38 1075.24 1165.97 1083.61 1155.87 1089.49L1154.89 1090.05C1144.36 1095.94 1132.45 1098.92 1120.39 1098.69H1120.39C1108.32 1098.45 1096.54 1095.01 1086.25 1088.71H1086.25L500.572 729.709L500.571 729.708L371.811 650.931L367.953 648.398C358.645 641.811 351.145 632.977 346.154 622.722C341.162 612.463 338.837 601.108 339.401 589.712V589.711C339.944 578.671 343.178 567.938 348.814 558.441L349.368 557.525C355.342 547.805 363.677 539.752 373.595 534.11L558.606 428.858L698.777 349.218L698.778 349.217L984.629 186.506L1088.53 127.324L1088.53 127.323C1098.81 121.524 1110.41 118.473 1122.2 118.46ZM1051.97 303.905L833.87 428.02L542.996 593.555L540.731 594.844L542.953 596.205L631.784 650.606L1051.93 907.909L1054.27 909.344V302.596L1051.97 303.905Z" stroke="url(#paint1_linear_2154_485)" stroke-width="3.078"/>
<defs>
<linearGradient id="paint0_linear_2154_485" x1="161.17" y1="-485.341" x2="1031.8" y2="-196.385" gradientUnits="userSpaceOnUse">
<stop stop-color="#FFAA05"/>
<stop offset="1" stop-color="#8B1700"/>
</linearGradient>
<linearGradient id="paint1_linear_2154_485" x1="552.583" y1="-368.895" x2="1630.11" y2="107.533" gradientUnits="userSpaceOnUse">
<stop stop-color="#FFAA05"/>
<stop offset="1" stop-color="#8B1700"/>
</linearGradient>
</defs>
</svg>
