<svg width="374" height="505" viewBox="0 0 374 505" fill="none" xmlns="http://www.w3.org/2000/svg">
<g clip-path="url(#clip0_2116_218)">
<rect y="0.269043" width="374" height="504" rx="24" fill="#11172C"/>
<mask id="path-2-inside-1_2116_218" fill="white">
<path d="M0 0.20166H374V66.2017H0V0.20166Z"/>
</mask>
<path d="M374 66.2017V65.2017H0V66.2017V67.2017H374V66.2017Z" fill="#273566" mask="url(#path-2-inside-1_2116_218)"/>
<circle cx="20" cy="37.2017" r="4" fill="#FFBC00"/>
<path d="M29.9274 43.2017V32.0017H31.6554V41.5377H36.9034V43.2017H29.9274ZM39.3615 43.2017V34.8017H41.0095V43.2017H39.3615ZM40.1615 32.9457C39.8095 32.9457 39.5375 32.855 39.3455 32.6737C39.1535 32.4923 39.0575 32.2363 39.0575 31.9057C39.0575 31.5963 39.1535 31.3457 39.3455 31.1537C39.5482 30.9617 39.8202 30.8657 40.1615 30.8657C40.5135 30.8657 40.7855 30.9563 40.9775 31.1377C41.1695 31.319 41.2655 31.575 41.2655 31.9057C41.2655 32.215 41.1642 32.4657 40.9615 32.6577C40.7695 32.8497 40.5028 32.9457 40.1615 32.9457ZM46.2946 43.2017L42.7426 34.8017H44.5186L47.0786 41.0897L46.7746 41.2337L49.5106 34.8017H51.2066L47.4786 43.2017H46.2946ZM56.4001 43.3617C55.5361 43.3617 54.7681 43.1803 54.0961 42.8177C53.4348 42.4443 52.9121 41.9377 52.5281 41.2977C52.1548 40.6577 51.9681 39.9217 51.9681 39.0897C51.9681 38.4283 52.0748 37.8257 52.2881 37.2817C52.5015 36.7377 52.7948 36.2683 53.1681 35.8737C53.5521 35.4683 54.0055 35.159 54.5281 34.9457C55.0615 34.7217 55.6375 34.6097 56.2561 34.6097C56.8001 34.6097 57.3068 34.7163 57.7761 34.9297C58.2455 35.1323 58.6508 35.415 58.9921 35.7777C59.3441 36.1403 59.6108 36.5723 59.7921 37.0737C59.9841 37.5643 60.0748 38.103 60.0641 38.6897L60.0481 39.3937H53.1841L52.8161 38.0817H58.6241L58.3841 38.3537V37.9697C58.3521 37.6177 58.2348 37.303 58.0321 37.0257C57.8295 36.7483 57.5735 36.5297 57.2641 36.3697C56.9548 36.2097 56.6188 36.1297 56.2561 36.1297C55.6801 36.1297 55.1948 36.2417 54.8001 36.4657C54.4055 36.679 54.1068 36.999 53.9041 37.4257C53.7015 37.8417 53.6001 38.359 53.6001 38.9777C53.6001 39.5643 53.7228 40.0763 53.9681 40.5137C54.2135 40.9403 54.5601 41.271 55.0081 41.5057C55.4561 41.7403 55.9735 41.8577 56.5601 41.8577C56.9761 41.8577 57.3601 41.7883 57.7121 41.6497C58.0748 41.511 58.4641 41.2603 58.8801 40.8977L59.7121 42.0657C59.4561 42.3217 59.1415 42.5457 58.7681 42.7377C58.4055 42.9297 58.0161 43.0843 57.6001 43.2017C57.1948 43.3083 56.7948 43.3617 56.4001 43.3617ZM70.2115 43.3617C69.6035 43.3617 69.0382 43.2817 68.5155 43.1217C68.0035 42.9617 67.5342 42.7217 67.1075 42.4017C66.6915 42.071 66.3182 41.6657 65.9875 41.1857L67.1715 39.8257C67.6942 40.5723 68.1955 41.0897 68.6755 41.3777C69.1555 41.6657 69.7262 41.8097 70.3875 41.8097C70.7928 41.8097 71.1608 41.7457 71.4915 41.6177C71.8222 41.4897 72.0835 41.3137 72.2755 41.0897C72.4675 40.8657 72.5635 40.6097 72.5635 40.3217C72.5635 40.1297 72.5315 39.9483 72.4675 39.7777C72.4035 39.607 72.3022 39.4523 72.1635 39.3137C72.0355 39.175 71.8648 39.047 71.6515 38.9297C71.4488 38.8123 71.2088 38.711 70.9315 38.6257C70.6542 38.5297 70.3342 38.4497 69.9715 38.3857C69.3955 38.2683 68.8942 38.1137 68.4675 37.9217C68.0408 37.7297 67.6835 37.4897 67.3955 37.2017C67.1075 36.9137 66.8942 36.5883 66.7555 36.2257C66.6168 35.8523 66.5475 35.4363 66.5475 34.9777C66.5475 34.5297 66.6435 34.1137 66.8355 33.7297C67.0382 33.3457 67.3102 33.015 67.6515 32.7377C68.0035 32.4497 68.4142 32.231 68.8835 32.0817C69.3528 31.9217 69.8595 31.8417 70.4035 31.8417C70.9795 31.8417 71.5075 31.9163 71.9875 32.0657C72.4675 32.215 72.8942 32.439 73.2675 32.7377C73.6408 33.0257 73.9502 33.383 74.1955 33.8097L72.9795 35.0097C72.7662 34.6577 72.5262 34.3643 72.2595 34.1297C71.9928 33.8843 71.6995 33.703 71.3795 33.5857C71.0595 33.4577 70.7182 33.3937 70.3555 33.3937C69.9395 33.3937 69.5768 33.4577 69.2675 33.5857C68.9582 33.7137 68.7128 33.895 68.5315 34.1297C68.3608 34.3537 68.2755 34.6203 68.2755 34.9297C68.2755 35.1537 68.3182 35.3617 68.4035 35.5537C68.4888 35.735 68.6168 35.9003 68.7875 36.0497C68.9688 36.1883 69.2088 36.3163 69.5075 36.4337C69.8062 36.5403 70.1635 36.6363 70.5795 36.7217C71.1662 36.8497 71.6888 37.015 72.1475 37.2177C72.6062 37.4097 72.9955 37.639 73.3155 37.9057C73.6355 38.1723 73.8755 38.471 74.0355 38.8017C74.2062 39.1323 74.2915 39.4897 74.2915 39.8737C74.2915 40.5883 74.1262 41.207 73.7955 41.7297C73.4648 42.2523 72.9955 42.6577 72.3875 42.9457C71.7795 43.223 71.0542 43.3617 70.2115 43.3617ZM77.3639 43.2017V32.6577H79.0119V43.2017H77.3639ZM75.6199 36.4017V34.8017H80.9639V36.4017H75.6199ZM82.4645 43.2017V34.8017H84.1285V37.4417L83.9685 36.8017C84.0858 36.3963 84.2832 36.0283 84.5605 35.6977C84.8485 35.367 85.1738 35.1057 85.5365 34.9137C85.9098 34.7217 86.2938 34.6257 86.6885 34.6257C86.8698 34.6257 87.0405 34.6417 87.2005 34.6737C87.3712 34.7057 87.5045 34.743 87.6005 34.7857L87.1685 36.5777C87.0405 36.5243 86.8965 36.4817 86.7365 36.4497C86.5872 36.407 86.4378 36.3857 86.2885 36.3857C86.0005 36.3857 85.7232 36.4443 85.4565 36.5617C85.2005 36.6683 84.9712 36.823 84.7685 37.0257C84.5765 37.2177 84.4218 37.447 84.3045 37.7137C84.1872 37.9697 84.1285 38.2523 84.1285 38.5617V43.2017H82.4645ZM92.4783 43.3617C91.6143 43.3617 90.8463 43.1803 90.1743 42.8177C89.5129 42.4443 88.9903 41.9377 88.6063 41.2977C88.2329 40.6577 88.0463 39.9217 88.0463 39.0897C88.0463 38.4283 88.1529 37.8257 88.3663 37.2817C88.5796 36.7377 88.8729 36.2683 89.2463 35.8737C89.6303 35.4683 90.0836 35.159 90.6063 34.9457C91.1396 34.7217 91.7156 34.6097 92.3343 34.6097C92.8783 34.6097 93.3849 34.7163 93.8543 34.9297C94.3236 35.1323 94.7289 35.415 95.0703 35.7777C95.4223 36.1403 95.6889 36.5723 95.8703 37.0737C96.0623 37.5643 96.1529 38.103 96.1423 38.6897L96.1263 39.3937H89.2623L88.8943 38.0817H94.7023L94.4623 38.3537V37.9697C94.4303 37.6177 94.3129 37.303 94.1103 37.0257C93.9076 36.7483 93.6516 36.5297 93.3423 36.3697C93.0329 36.2097 92.6969 36.1297 92.3343 36.1297C91.7583 36.1297 91.2729 36.2417 90.8783 36.4657C90.4836 36.679 90.1849 36.999 89.9823 37.4257C89.7796 37.8417 89.6783 38.359 89.6783 38.9777C89.6783 39.5643 89.8009 40.0763 90.0463 40.5137C90.2916 40.9403 90.6383 41.271 91.0863 41.5057C91.5343 41.7403 92.0516 41.8577 92.6383 41.8577C93.0543 41.8577 93.4383 41.7883 93.7903 41.6497C94.1529 41.511 94.5423 41.2603 94.9583 40.8977L95.7903 42.0657C95.5343 42.3217 95.2196 42.5457 94.8463 42.7377C94.4836 42.9297 94.0943 43.0843 93.6783 43.2017C93.2729 43.3083 92.8729 43.3617 92.4783 43.3617ZM101.165 43.3617C100.472 43.3617 99.8373 43.1697 99.2613 42.7857C98.6959 42.4017 98.2426 41.879 97.9013 41.2177C97.5599 40.5563 97.3893 39.8097 97.3893 38.9777C97.3893 38.135 97.5599 37.3883 97.9013 36.7377C98.2533 36.0763 98.7226 35.559 99.3093 35.1857C99.9066 34.8123 100.573 34.6257 101.309 34.6257C101.747 34.6257 102.147 34.6897 102.509 34.8177C102.872 34.9457 103.187 35.127 103.453 35.3617C103.731 35.5857 103.955 35.847 104.125 36.1457C104.307 36.4443 104.419 36.7643 104.461 37.1057L104.093 36.9777V34.8017H105.757V43.2017H104.093V41.2017L104.477 41.0897C104.413 41.3777 104.28 41.6603 104.077 41.9377C103.885 42.2043 103.635 42.4443 103.325 42.6577C103.027 42.871 102.691 43.0417 102.317 43.1697C101.955 43.2977 101.571 43.3617 101.165 43.3617ZM101.597 41.8417C102.099 41.8417 102.541 41.719 102.925 41.4737C103.309 41.2283 103.608 40.8923 103.821 40.4657C104.045 40.0283 104.157 39.5323 104.157 38.9777C104.157 38.4337 104.045 37.9483 103.821 37.5217C103.608 37.095 103.309 36.759 102.925 36.5137C102.541 36.2683 102.099 36.1457 101.597 36.1457C101.107 36.1457 100.669 36.2683 100.285 36.5137C99.9119 36.759 99.6133 37.095 99.3893 37.5217C99.1759 37.9483 99.0693 38.4337 99.0693 38.9777C99.0693 39.5323 99.1759 40.0283 99.3893 40.4657C99.6133 40.8923 99.9119 41.2283 100.285 41.4737C100.669 41.719 101.107 41.8417 101.597 41.8417ZM108.026 43.2017V34.8017H109.69V36.5937L109.386 36.7857C109.472 36.5083 109.605 36.2417 109.786 35.9857C109.978 35.7297 110.208 35.5057 110.474 35.3137C110.752 35.111 111.045 34.951 111.354 34.8337C111.674 34.7163 112 34.6577 112.33 34.6577C112.81 34.6577 113.232 34.7377 113.594 34.8977C113.957 35.0577 114.256 35.2977 114.49 35.6177C114.725 35.9377 114.896 36.3377 115.002 36.8177L114.746 36.7537L114.858 36.4817C114.976 36.2363 115.136 36.007 115.338 35.7937C115.552 35.5697 115.792 35.3723 116.058 35.2017C116.325 35.031 116.608 34.8977 116.906 34.8017C117.205 34.7057 117.498 34.6577 117.786 34.6577C118.416 34.6577 118.933 34.7857 119.338 35.0417C119.754 35.2977 120.064 35.687 120.266 36.2097C120.48 36.7323 120.586 37.383 120.586 38.1617V43.2017H118.922V38.2577C118.922 37.7777 118.858 37.3883 118.73 37.0897C118.613 36.7803 118.432 36.551 118.186 36.4017C117.941 36.2523 117.626 36.1777 117.242 36.1777C116.944 36.1777 116.661 36.231 116.394 36.3377C116.138 36.4337 115.914 36.5723 115.722 36.7537C115.53 36.935 115.381 37.1483 115.274 37.3937C115.168 37.6283 115.114 37.8897 115.114 38.1777V43.2017H113.45V38.2257C113.45 37.7883 113.386 37.4203 113.258 37.1217C113.13 36.8123 112.944 36.5777 112.698 36.4177C112.453 36.2577 112.154 36.1777 111.802 36.1777C111.504 36.1777 111.226 36.231 110.97 36.3377C110.714 36.4337 110.49 36.5723 110.298 36.7537C110.106 36.9243 109.957 37.1323 109.85 37.3777C109.744 37.6123 109.69 37.8683 109.69 38.1457V43.2017H108.026Z" fill="#BCBCBC"/>
<rect x="205.5" y="16.7017" width="112" height="41" rx="20.5" fill="#080C17"/>
<rect x="205.5" y="16.7017" width="112" height="41" rx="20.5" stroke="#273566"/>
<path d="M225.371 35.5816L227.717 34.2486L220.472 30.1186L218.737 29.1281C218.56 29.0277 218.36 28.9754 218.157 28.9765C217.953 28.9775 217.754 29.032 217.578 29.1343C217.402 29.2366 217.256 29.3832 217.155 29.5596C217.053 29.7358 217 29.9357 217 30.1391V44.2662C217 44.4727 217.055 44.6754 217.16 44.8535C217.264 45.0316 217.414 45.1785 217.595 45.2793C217.767 45.3769 217.962 45.4278 218.161 45.4268C218.378 45.4292 218.591 45.3702 218.776 45.2567L224.456 41.7705L222.719 40.7062C222.568 40.6126 222.431 40.4995 222.309 40.3699L219.338 42.1909V32.1324L225.371 35.5816Z" fill="#FF9D1F"/>
<path d="M241.428 29.1288C241.251 29.0264 241.05 28.9726 240.845 28.973C240.643 28.9732 240.445 29.0254 240.269 29.1247L238.53 30.1152L233.746 32.8384L231.4 34.1714L228.303 35.9329C228.134 36.0295 227.991 36.1673 227.889 36.3337C227.786 36.5001 227.728 36.6896 227.718 36.8846C227.709 37.0797 227.748 37.2741 227.834 37.4496C227.919 37.6252 228.048 37.7765 228.207 37.8892L228.273 37.9323L230.428 39.2509L240.23 45.2594C240.406 45.3672 240.608 45.4262 240.815 45.4302C241.021 45.4342 241.225 45.3831 241.405 45.2823C241.585 45.1814 241.735 45.0344 241.84 44.8563C241.944 44.6781 242 44.4754 242 44.2689V30.1397C242.002 29.9359 241.95 29.7351 241.849 29.5577C241.749 29.3803 241.603 29.2323 241.428 29.1288ZM239.683 42.1895L232.651 37.8831L231.164 36.9726L236.032 34.2021L239.683 32.1248V42.1895Z" fill="#FF9D1F"/>
<path d="M253.243 41.5157V33.5637L253.761 33.9557L251.829 34.9777L251.423 33.6617L254.041 32.2617H254.769V41.5157H253.243ZM251.689 42.2017V40.7457H256.365V42.2017H251.689ZM261.447 42.3417C260.7 42.3417 260.056 42.1363 259.515 41.7257C258.983 41.315 258.572 40.7363 258.283 39.9897C257.994 39.2337 257.849 38.3377 257.849 37.3017C257.849 36.2657 257.994 35.3743 258.283 34.6277C258.572 33.8717 258.983 33.2883 259.515 32.8777C260.056 32.467 260.7 32.2617 261.447 32.2617C262.194 32.2617 262.838 32.467 263.379 32.8777C263.92 33.2883 264.336 33.8717 264.625 34.6277C264.914 35.3743 265.059 36.2657 265.059 37.3017C265.059 38.3377 264.914 39.2337 264.625 39.9897C264.336 40.7363 263.92 41.315 263.379 41.7257C262.838 42.1363 262.194 42.3417 261.447 42.3417ZM261.447 40.9697C262.128 40.9697 262.656 40.6523 263.029 40.0177C263.402 39.3737 263.589 38.4683 263.589 37.3017C263.589 36.135 263.402 35.2343 263.029 34.5997C262.656 33.9557 262.128 33.6337 261.447 33.6337C260.766 33.6337 260.238 33.9557 259.865 34.5997C259.492 35.2343 259.305 36.135 259.305 37.3017C259.305 38.4683 259.492 39.3737 259.865 40.0177C260.238 40.6523 260.766 40.9697 261.447 40.9697ZM269.951 42.3417C269.204 42.3417 268.56 42.1363 268.019 41.7257C267.487 41.315 267.076 40.7363 266.787 39.9897C266.498 39.2337 266.353 38.3377 266.353 37.3017C266.353 36.2657 266.498 35.3743 266.787 34.6277C267.076 33.8717 267.487 33.2883 268.019 32.8777C268.56 32.467 269.204 32.2617 269.951 32.2617C270.698 32.2617 271.342 32.467 271.883 32.8777C272.424 33.2883 272.84 33.8717 273.129 34.6277C273.418 35.3743 273.563 36.2657 273.563 37.3017C273.563 38.3377 273.418 39.2337 273.129 39.9897C272.84 40.7363 272.424 41.315 271.883 41.7257C271.342 42.1363 270.698 42.3417 269.951 42.3417ZM269.951 40.9697C270.632 40.9697 271.16 40.6523 271.533 40.0177C271.906 39.3737 272.093 38.4683 272.093 37.3017C272.093 36.135 271.906 35.2343 271.533 34.5997C271.16 33.9557 270.632 33.6337 269.951 33.6337C269.27 33.6337 268.742 33.9557 268.369 34.5997C267.996 35.2343 267.809 36.135 267.809 37.3017C267.809 38.4683 267.996 39.3737 268.369 40.0177C268.742 40.6523 269.27 40.9697 269.951 40.9697ZM277.447 42.2017V33.8577H274.703V32.4017H281.787V33.8577H278.959V42.2017H277.447ZM285.874 42.2017L282.752 32.4017H284.362L286.252 38.5337C286.308 38.683 286.359 38.8603 286.406 39.0657C286.453 39.2617 286.495 39.4623 286.532 39.6677C286.569 39.873 286.602 40.0643 286.63 40.2417C286.667 40.419 286.7 40.5637 286.728 40.6757L286.322 40.6617C286.462 40.167 286.569 39.7843 286.644 39.5137C286.728 39.243 286.793 39.0377 286.84 38.8977C286.887 38.7483 286.929 38.6223 286.966 38.5197L288.73 34.0957H290.088L291.796 38.5197C291.889 38.7437 291.969 38.9677 292.034 39.1917C292.109 39.4063 292.174 39.6257 292.23 39.8497C292.286 40.0643 292.347 40.293 292.412 40.5357L292.048 40.6337C292.095 40.3817 292.127 40.1857 292.146 40.0457C292.174 39.8963 292.197 39.775 292.216 39.6817C292.235 39.5883 292.253 39.4997 292.272 39.4157C292.291 39.3223 292.319 39.2057 292.356 39.0657C292.403 38.9257 292.463 38.7343 292.538 38.4917L294.4 32.4017H296.024L292.902 42.2017H291.852L289.262 36.0697L289.388 36.1257L286.896 42.2017H285.874ZM301.641 42.3417C300.96 42.3417 300.334 42.2203 299.765 41.9777C299.196 41.735 298.701 41.3897 298.281 40.9417C297.861 40.4843 297.534 39.9477 297.301 39.3317C297.077 38.7157 296.965 38.039 296.965 37.3017C296.965 36.6017 297.086 35.953 297.329 35.3557C297.581 34.749 297.926 34.217 298.365 33.7597C298.804 33.3023 299.312 32.9477 299.891 32.6957C300.47 32.4437 301.095 32.3177 301.767 32.3177C302.243 32.3177 302.705 32.3923 303.153 32.5417C303.61 32.6817 304.021 32.8823 304.385 33.1437C304.758 33.3957 305.062 33.685 305.295 34.0117L304.287 35.0617C304.016 34.791 303.741 34.567 303.461 34.3897C303.19 34.203 302.91 34.063 302.621 33.9697C302.341 33.8763 302.056 33.8297 301.767 33.8297C301.31 33.8297 300.88 33.9183 300.479 34.0957C300.087 34.2637 299.742 34.5017 299.443 34.8097C299.154 35.1177 298.925 35.4863 298.757 35.9157C298.589 36.3357 298.505 36.7977 298.505 37.3017C298.505 37.8337 298.584 38.319 298.743 38.7577C298.911 39.187 299.144 39.5557 299.443 39.8637C299.742 40.1717 300.096 40.4097 300.507 40.5777C300.927 40.7363 301.389 40.8157 301.893 40.8157C302.201 40.8157 302.504 40.7737 302.803 40.6897C303.102 40.6057 303.382 40.4843 303.643 40.3257C303.904 40.167 304.142 39.9803 304.357 39.7657L305.113 40.9977C304.898 41.2497 304.604 41.4783 304.231 41.6837C303.867 41.889 303.456 42.0523 302.999 42.1737C302.551 42.2857 302.098 42.3417 301.641 42.3417Z" fill="#BCBCBC"/>
<circle cx="342" cy="37.2017" r="16" fill="#273566"/>
<circle cx="32" cy="94.2017" r="16" fill="#1FBF6A"/>
<rect x="70" y="82.2017" width="240" height="8" rx="4" fill="#273566"/>
<rect x="70" y="98.2017" width="125" height="8" rx="4" fill="#273566"/>
<circle cx="32" cy="138.202" r="16" fill="#00A8FF"/>
<rect x="70" y="126.202" width="211" height="8" rx="4" fill="#273566"/>
<rect x="70" y="142.202" width="190" height="8" rx="4" fill="#273566"/>
<circle cx="32" cy="182.202" r="16" fill="#A65DEA"/>
<rect x="70" y="170.202" width="188" height="8" rx="4" fill="#273566"/>
<rect x="70" y="186.202" width="44" height="8" rx="4" fill="#273566"/>
<circle cx="32" cy="226.202" r="16" fill="#FEFEFE"/>
<rect x="70" y="214.202" width="117" height="8" rx="4" fill="#273566"/>
<rect x="70" y="230.202" width="218" height="8" rx="4" fill="#273566"/>
<circle cx="32" cy="270.202" r="16" fill="url(#paint0_linear_2116_218)"/>
<rect x="70" y="258.202" width="240" height="8" rx="4" fill="#273566"/>
<rect x="70" y="274.202" width="125" height="8" rx="4" fill="#273566"/>
<circle cx="32" cy="314.202" r="16" fill="#1FBF6A"/>
<rect x="70" y="302.202" width="240" height="8" rx="4" fill="#273566"/>
<rect x="70" y="318.202" width="125" height="8" rx="4" fill="#273566"/>
<circle cx="32" cy="358.202" r="16" fill="#00A8FF"/>
<rect x="70" y="346.202" width="211" height="8" rx="4" fill="#273566"/>
<rect x="70" y="362.202" width="190" height="8" rx="4" fill="#273566"/>
<circle cx="32" cy="402.202" r="16" fill="#A65DEA"/>
<rect x="70" y="390.202" width="188" height="8" rx="4" fill="#273566"/>
<rect x="70" y="406.202" width="44" height="8" rx="4" fill="#273566"/>
<circle cx="32" cy="446.202" r="16" fill="#FEFEFE"/>
<rect x="70" y="434.202" width="117" height="8" rx="4" fill="#273566"/>
<rect x="70" y="450.202" width="218" height="8" rx="4" fill="#273566"/>
<circle cx="32" cy="490.202" r="16" fill="url(#paint1_linear_2116_218)"/>
<rect x="70" y="478.202" width="240" height="8" rx="4" fill="#273566"/>
<rect x="70" y="494.202" width="125" height="8" rx="4" fill="#273566"/>
</g>
<defs>
<linearGradient id="paint0_linear_2116_218" x1="24.0545" y1="238.392" x2="62.4037" y2="257.929" gradientUnits="userSpaceOnUse">
<stop stop-color="#F9AC17"/>
<stop offset="1" stop-color="#FF5E01"/>
</linearGradient>
<linearGradient id="paint1_linear_2116_218" x1="24.0545" y1="458.392" x2="62.4037" y2="477.929" gradientUnits="userSpaceOnUse">
<stop stop-color="#F9AC17"/>
<stop offset="1" stop-color="#FF5E01"/>
</linearGradient>
<clipPath id="clip0_2116_218">
<rect y="0.269043" width="374" height="504" rx="24" fill="white"/>
</clipPath>
</defs>
</svg>
