<svg width="32" height="33" viewBox="0 0 32 33" fill="none" xmlns="http://www.w3.org/2000/svg">
<path d="M20.6667 17.6696C25.4531 17.6696 29.3333 16.4757 29.3333 15.003C29.3333 13.5302 25.4531 12.3363 20.6667 12.3363C15.8802 12.3363 12 13.5302 12 15.003C12 16.4757 15.8802 17.6696 20.6667 17.6696Z" stroke="#FFBC00" stroke-width="2"/>
<path d="M29.3333 21.003C29.3333 22.4758 25.4532 23.6697 20.6667 23.6697C15.8801 23.6697 12 22.4758 12 21.003" stroke="#FFBC00" stroke-width="2"/>
<path d="M29.3333 15.003V26.7363C29.3333 28.3563 25.4532 29.6697 20.6667 29.6697C15.8801 29.6697 12 28.3563 12 26.7363V15.003" stroke="#FFBC00" stroke-width="2"/>
<path d="M11.3327 8.33632C16.1192 8.33632 19.9993 7.14242 19.9993 5.66966C19.9993 4.1969 16.1192 3.00299 11.3327 3.00299C6.54621 3.00299 2.66602 4.1969 2.66602 5.66966C2.66602 7.14242 6.54621 8.33632 11.3327 8.33632Z" stroke="#FFBC00" stroke-width="2"/>
<path d="M7.99935 15.003C5.47694 14.696 3.15923 13.9023 2.66602 12.3363M7.99935 21.6696C5.47694 21.3627 3.15923 20.569 2.66602 19.003" stroke="#FFBC00" stroke-width="2" stroke-linecap="round"/>
<path d="M7.99935 28.3363C5.47694 28.0293 3.15923 27.2356 2.66602 25.6696V5.66962" stroke="#FFBC00" stroke-width="2" stroke-linecap="round"/>
<path d="M20 8.33628V5.66962" stroke="#FFBC00" stroke-width="2" stroke-linecap="round"/>
</svg>
