<svg width="121" height="41" viewBox="0 0 121 41" fill="none" xmlns="http://www.w3.org/2000/svg">
<rect x="1.05859" y="0.930664" width="119" height="39" rx="5.5" fill="white"/>
<rect x="1.05859" y="0.930664" width="119" height="39" rx="5.5" stroke="black"/>
<path d="M18.3637 19.8923L8.64844 30.4366C8.64935 30.4385 8.64935 30.4413 8.65026 30.4431C8.94864 31.5881 9.97063 32.4307 11.1842 32.4307C11.6697 32.4307 12.125 32.2963 12.5155 32.0611L12.5466 32.0425L23.4818 25.59L18.3637 19.8923Z" fill="#EA4335"/>
<path d="M28.1918 18.0969L28.1826 18.0903L23.4614 15.2919L18.1426 20.132L23.4806 25.5889L28.1763 22.8184C28.9993 22.3631 29.5587 21.4757 29.5587 20.453C29.5587 19.4359 29.0075 18.5531 28.1918 18.0969Z" fill="#FBBC04"/>
<path d="M8.64802 10.4239C8.58962 10.6441 8.55859 10.8755 8.55859 11.1144V29.7469C8.55859 29.9858 8.58962 30.2172 8.64893 30.4365L18.6972 20.1619L8.64802 10.4239Z" fill="#4285F4"/>
<path d="M18.4357 20.4307L23.4635 15.2901L12.5411 8.81426C12.1442 8.57072 11.6806 8.43075 11.1851 8.43075C9.97154 8.43075 8.94773 9.27522 8.64935 10.4211C8.64935 10.422 8.64844 10.423 8.64844 10.4239L18.4357 20.4307Z" fill="#34A853"/>
<path d="M44.1686 12.1407C44.1686 13.1407 43.8719 13.9373 43.2786 14.5307C42.6119 15.2373 41.7353 15.5907 40.6486 15.5907C39.6086 15.5907 38.7286 15.2307 38.0086 14.5107C37.2886 13.7907 36.9286 12.904 36.9286 11.8507C36.9286 10.7973 37.2886 9.91066 38.0086 9.19066C38.7286 8.47066 39.6086 8.11066 40.6486 8.11066C41.1753 8.11066 41.6719 8.204 42.1386 8.39066C42.6053 8.57733 42.9886 8.84066 43.2886 9.18066L42.6286 9.84066C42.4086 9.574 42.1219 9.36733 41.7686 9.22066C41.4219 9.06733 41.0486 8.99066 40.6486 8.99066C39.8686 8.99066 39.2086 9.26066 38.6686 9.80066C38.1353 10.3473 37.8686 11.0307 37.8686 11.8507C37.8686 12.6707 38.1353 13.354 38.6686 13.9007C39.2086 14.4407 39.8686 14.7107 40.6486 14.7107C41.3619 14.7107 41.9553 14.5107 42.4286 14.1107C42.9019 13.7107 43.1753 13.1607 43.2486 12.4607H40.6486V11.6007H44.1186C44.1519 11.7873 44.1686 11.9673 44.1686 12.1407ZM49.4664 8.27066V9.15066H46.2064V11.4207H49.1464V12.2807H46.2064V14.5507H49.4664V15.4307H45.2864V8.27066H49.4664ZM53.1463 9.15066V15.4307H52.2263V9.15066H50.2263V8.27066H55.1463V9.15066H53.1463ZM59.224 15.4307H58.304V8.27066H59.224V15.4307ZM63.1073 9.15066V15.4307H62.1873V9.15066H60.1873V8.27066H65.1073V9.15066H63.1073ZM75.0796 11.8507C75.0796 12.9107 74.7263 13.7973 74.0196 14.5107C73.3063 15.2307 72.4329 15.5907 71.3996 15.5907C70.3596 15.5907 69.4863 15.2307 68.7796 14.5107C68.0729 13.7973 67.7196 12.9107 67.7196 11.8507C67.7196 10.7907 68.0729 9.904 68.7796 9.19066C69.4863 8.47066 70.3596 8.11066 71.3996 8.11066C72.4396 8.11066 73.3129 8.474 74.0196 9.20066C74.7263 9.914 75.0796 10.7973 75.0796 11.8507ZM68.6596 11.8507C68.6596 12.6773 68.9196 13.3607 69.4396 13.9007C69.9663 14.4407 70.6196 14.7107 71.3996 14.7107C72.1796 14.7107 72.8296 14.4407 73.3496 13.9007C73.8763 13.3673 74.1396 12.684 74.1396 11.8507C74.1396 11.0173 73.8763 10.334 73.3496 9.80066C72.8296 9.26066 72.1796 8.99066 71.3996 8.99066C70.6196 8.99066 69.9663 9.26066 69.4396 9.80066C68.9196 10.3407 68.6596 11.024 68.6596 11.8507ZM77.0853 15.4307H76.1653V8.27066H77.2853L80.7653 13.8407H80.8053L80.7653 12.4607V8.27066H81.6853V15.4307H80.7253L77.0853 9.59066H77.0453L77.0853 10.9707V15.4307Z" fill="black"/>
<path d="M94.0767 31.8403H95.7055V20.8288H94.0767V31.8403ZM108.747 24.7953L106.88 29.5695H106.824L104.887 24.7953H103.132L106.038 31.4677L104.382 35.1796H106.08L110.559 24.7953H108.747ZM99.5105 30.5895C98.9762 30.5895 98.2325 30.3209 98.2325 29.654C98.2325 28.8049 99.1587 28.479 99.9591 28.479C100.675 28.479 101.013 28.6349 101.447 28.8472C101.321 29.8672 100.451 30.5895 99.5105 30.5895ZM99.7068 24.5548C98.5276 24.5548 97.3055 25.0789 96.801 26.2408L98.2465 26.8494C98.5555 26.2408 99.1307 26.0417 99.7348 26.0417C100.577 26.0417 101.433 26.5517 101.447 27.459V27.5717C101.152 27.4017 100.521 27.1471 99.7487 27.1471C98.1906 27.1471 96.6037 28.0113 96.6037 29.6259C96.6037 31.0995 97.8816 32.0491 99.3132 32.0491C100.409 32.0491 101.013 31.5532 101.392 30.9718H101.447V31.8218H103.019V27.5999C103.019 25.6453 101.574 24.5548 99.7068 24.5548ZM89.6407 26.1359H87.324V22.3615H89.6407C90.8584 22.3615 91.5497 23.3789 91.5497 24.2483C91.5497 25.1018 90.8584 26.1359 89.6407 26.1359ZM89.5988 20.8288H85.6961V31.8403H87.324V27.6686H89.5988C91.4039 27.6686 93.1785 26.3491 93.1785 24.2483C93.1785 22.1474 91.4039 20.8288 89.5988 20.8288ZM68.3169 30.5913C67.1917 30.5913 66.2499 29.6408 66.2499 28.3354C66.2499 27.0159 67.1917 26.0505 68.3169 26.0505C69.4281 26.0505 70.2992 27.0159 70.2992 28.3354C70.2992 29.6408 69.4281 30.5913 68.3169 30.5913ZM70.1875 25.4119H70.1308C69.765 24.9723 69.0623 24.5751 68.1764 24.5751C66.3197 24.5751 64.6185 26.2205 64.6185 28.3354C64.6185 30.4354 66.3197 32.0676 68.1764 32.0676C69.0623 32.0676 69.765 31.6703 70.1308 31.2158H70.1875V31.7558C70.1875 33.1889 69.4281 33.9552 68.2043 33.9552C67.2057 33.9552 66.5868 33.2312 66.3337 32.6208L64.9135 33.2171C65.3211 34.2107 66.4044 35.4307 68.2043 35.4307C70.1168 35.4307 71.7343 34.2952 71.7343 31.5285V24.8014H70.1875V25.4119ZM72.8594 31.8403H74.4908V20.8279H72.8594V31.8403ZM76.8948 28.2077C76.8529 26.7605 78.006 26.0223 78.8352 26.0223C79.4829 26.0223 80.0311 26.3482 80.2135 26.8168L76.8948 28.2077ZM81.9575 26.9586C81.6485 26.1218 80.7058 24.5751 78.7793 24.5751C76.8668 24.5751 75.2782 26.0928 75.2782 28.3213C75.2782 30.4213 76.8529 32.0676 78.9618 32.0676C80.6639 32.0676 81.6485 31.0176 82.0562 30.4072L80.7905 29.5554C80.3689 30.1799 79.7919 30.5913 78.9618 30.5913C78.1325 30.5913 77.5416 30.2081 77.1619 29.4567L82.126 27.3841L81.9575 26.9586ZM42.4087 25.7246V27.3136H46.177C46.0644 28.2077 45.7693 28.8604 45.3198 29.314C44.7707 29.8681 43.9127 30.4785 42.4087 30.4785C40.0877 30.4785 38.2738 28.5909 38.2738 26.2496C38.2738 23.9074 40.0877 22.0206 42.4087 22.0206C43.6604 22.0206 44.5743 22.5174 45.2491 23.156L46.3603 22.0347C45.4175 21.1265 44.1667 20.4307 42.4087 20.4307C39.2305 20.4307 36.5586 23.0424 36.5586 26.2496C36.5586 29.4567 39.2305 32.0676 42.4087 32.0676C44.1239 32.0676 45.4175 31.4994 46.4301 30.4354C47.4714 29.3854 47.7944 27.91 47.7944 26.7173C47.7944 26.3482 47.7665 26.0082 47.7097 25.7246H42.4087ZM52.0794 30.5913C50.9543 30.5913 49.9836 29.6549 49.9836 28.3213C49.9836 26.9727 50.9543 26.0505 52.0794 26.0505C53.2037 26.0505 54.1744 26.9727 54.1744 28.3213C54.1744 29.6549 53.2037 30.5913 52.0794 30.5913ZM52.0794 24.5751C50.0255 24.5751 48.3522 26.15 48.3522 28.3213C48.3522 30.4785 50.0255 32.0676 52.0794 32.0676C54.1325 32.0676 55.8058 30.4785 55.8058 28.3213C55.8058 26.15 54.1325 24.5751 52.0794 24.5751ZM60.2086 30.5913C59.0835 30.5913 58.1128 29.6549 58.1128 28.3213C58.1128 26.9727 59.0835 26.0505 60.2086 26.0505C61.3338 26.0505 62.3036 26.9727 62.3036 28.3213C62.3036 29.6549 61.3338 30.5913 60.2086 30.5913ZM60.2086 24.5751C58.1556 24.5751 56.4823 26.15 56.4823 28.3213C56.4823 30.4785 58.1556 32.0676 60.2086 32.0676C62.2617 32.0676 63.935 30.4785 63.935 28.3213C63.935 26.15 62.2617 24.5751 60.2086 24.5751Z" fill="black"/>
</svg>
