<svg width="310" height="215" viewBox="0 0 310 215" fill="none" xmlns="http://www.w3.org/2000/svg">
<path d="M33.3613 0.743164C39.0954 0.712882 44.7393 2.18752 49.7275 5.01855V5.01953L99.7646 33.5879L307.588 152.058L241.429 189.647L67.7939 90.3779L66.6826 89.7422V382.454L67.8135 381.761L153.001 329.554C156.443 333.156 160.328 336.31 164.562 338.938L164.566 338.941L213.629 369.004L50.832 468.917C45.6151 472.118 39.602 473.782 33.4834 473.715H33.4717C27.8827 473.743 22.3837 472.307 17.5186 469.555L17.5146 469.553L17.041 469.282C12.1678 466.452 8.10349 462.41 5.24707 457.544C2.30075 452.523 0.745382 446.806 0.743164 440.982V33.5332C0.743164 27.7984 2.24862 22.1606 5.1084 17.1895C7.96832 12.216 12.0807 8.0812 17.0391 5.19531C21.9975 2.30939 27.6244 0.773503 33.3613 0.743164Z" stroke="url(#paint0_linear_2183_973)" stroke-width="1.48579"/>
<defs>
<linearGradient id="paint0_linear_2183_973" x1="77.7987" y1="-234.41" x2="498.065" y2="-94.9276" gradientUnits="userSpaceOnUse">
<stop stop-color="#F9AC17"/>
<stop offset="1" stop-color="#FF5E01"/>
</linearGradient>
</defs>
</svg>
