<svg width="38" height="36" viewBox="0 0 38 36" fill="none" xmlns="http://www.w3.org/2000/svg">
<path d="M3.0752 1.23535C3.52771 1.23303 3.9727 1.34992 4.36621 1.57324H4.36816L7.48438 3.35254H7.4834L20.4971 10.7705L21.2598 11.2061L20.4961 11.6396L16.2822 14.0342L16.0352 14.1748L15.7871 14.0332L5.69922 8.26465V24.5771L10.2754 21.7734L10.623 21.5605L10.9014 21.8584C11.0891 22.0589 11.3026 22.2339 11.5361 22.3789L14.6543 24.2891L15.3496 24.7158L14.6543 25.1416L4.45117 31.4033C4.04055 31.6553 3.56765 31.7863 3.08594 31.7822L3.08691 31.7832C3.08431 31.7832 3.08171 31.7832 3.0791 31.7832V31.7822C2.6385 31.783 2.20557 31.67 1.82227 31.4531V31.4521C1.42214 31.228 1.0878 30.9025 0.855469 30.5068V30.5059C0.622986 30.1095 0.500171 29.6579 0.5 29.1982V3.82324C0.500078 3.37065 0.619017 2.92555 0.844727 2.5332C1.07042 2.14084 1.39495 1.81465 1.78613 1.58691C2.17743 1.35917 2.62224 1.23774 3.0752 1.23535Z" stroke="#FFBC00"/>
<path d="M34.7344 4.74316C35.1331 4.74242 35.5258 4.83303 35.8818 5.00879L36.0322 5.08887L36.0352 5.09082C36.4261 5.32131 36.7501 5.65102 36.9736 6.0459C37.1965 6.43967 37.3126 6.88551 37.3096 7.33789V32.7168L37.3037 32.8887C37.2805 33.2313 37.1889 33.5659 37.0352 33.873L36.9531 34.0244C36.7206 34.4209 36.3864 34.7481 35.9854 34.9727C35.5844 35.1971 35.1304 35.3097 34.6709 35.3008V35.3018C34.2687 35.294 33.8743 35.1927 33.5195 35.0068L33.3691 34.9219L15.7627 24.1299L11.8916 21.7617L11.8848 21.7568L11.8789 21.7529L11.7607 21.6758L11.7529 21.6709L11.7461 21.666C11.391 21.4149 11.1053 21.0775 10.915 20.6865C10.7248 20.2955 10.6357 19.8623 10.6572 19.4277C10.6787 18.9935 10.8094 18.5715 11.0371 18.2012C11.2649 17.8306 11.583 17.5236 11.9609 17.3086L17.5225 14.1445L21.7363 11.751L30.3291 6.85938L33.4531 5.08008L33.4551 5.0791C33.8455 4.85875 34.2862 4.74377 34.7344 4.74316ZM26.3379 15.0693L18.3291 19.627L20.2783 20.8203L32.1475 28.0879V11.7627L26.3379 15.0693Z" stroke="#FFBC00"/>
</svg>
