<svg width="25" height="25" viewBox="0 0 25 25" fill="none" xmlns="http://www.w3.org/2000/svg">
<path d="M12.5 22.5C18.0228 22.5 22.5 18.0228 22.5 12.5C22.5 6.97715 18.0228 2.5 12.5 2.5C6.97715 2.5 2.5 6.97715 2.5 12.5C2.5 18.0228 6.97715 22.5 12.5 22.5Z" stroke="white" stroke-width="1.5"/>
<path d="M10 11.6998V13.3002C10 14.8195 10 15.5791 10.4558 15.8862C10.9115 16.1932 11.5348 15.8535 12.7815 15.1741L14.2497 14.3738C15.7499 13.5562 16.5 13.1474 16.5 12.5C16.5 11.8526 15.7499 11.4438 14.2497 10.6262L12.7815 9.82594C11.5348 9.1465 10.9115 8.80678 10.4558 9.11382C10 9.42086 10 10.1805 10 11.6998Z" fill="white"/>
</svg>
