<svg width="412" height="159" viewBox="0 0 412 159" fill="none" xmlns="http://www.w3.org/2000/svg">
<path d="M378.702 1.05225C384.469 1.04143 390.135 2.55708 395.125 5.44482C400.077 8.36513 404.174 12.5376 407.005 17.5396C409.748 22.387 411.21 27.8539 411.256 33.4165V441.47C411.249 447.294 409.692 453.011 406.743 458.034V458.035C403.889 462.901 399.827 466.945 394.954 469.779L394.479 470.049C389.557 472.805 384.006 474.243 378.372 474.226L377.826 474.22C372.003 474.108 366.313 472.444 361.346 469.405H361.347L78.6328 296.11L16.4727 258.08L14.6191 256.863H14.6201C10.1251 253.683 6.50362 249.417 4.09375 244.465C1.68399 239.514 0.561495 234.032 0.833984 228.532V228.531C1.09598 223.202 2.65717 218.021 5.37793 213.437L5.64453 212.995C8.52794 208.303 12.5517 204.415 17.3389 201.692L106.647 150.885L106.646 150.884L174.309 112.442L174.31 112.441L312.293 33.8989H312.294L362.446 5.33154L362.447 5.33252C367.252 2.62013 372.657 1.15216 378.168 1.05713L378.702 1.05225ZM344.799 90.5688L239.521 150.481L99.1113 230.386L98.0186 231.008L99.0908 231.666L141.971 257.926L344.778 382.129L345.909 382.822V89.937L344.799 90.5688Z" stroke="url(#paint0_linear_2183_974)" stroke-width="1.48579"/>
<defs>
<linearGradient id="paint0_linear_2183_974" x1="103.739" y1="-234.201" x2="623.875" y2="-4.22266" gradientUnits="userSpaceOnUse">
<stop stop-color="#F9AC17"/>
<stop offset="1" stop-color="#FF5E01"/>
</linearGradient>
</defs>
</svg>
