<svg width="32" height="33" viewBox="0 0 32 33" fill="none" xmlns="http://www.w3.org/2000/svg">
<path d="M26.6673 21.6696V11.003C26.6673 7.23172 26.6673 5.34611 25.4957 4.17453C24.3241 3.00296 22.4385 3.00296 18.6673 3.00296H13.334C9.56274 3.00296 7.67713 3.00296 6.50556 4.17453C5.33398 5.34611 5.33398 7.23172 5.33398 11.003V21.6696C5.33398 25.4408 5.33398 27.3264 6.50556 28.498C7.67713 29.6696 9.56274 29.6696 13.334 29.6696H18.6673C22.4385 29.6696 24.3241 29.6696 25.4957 28.498C26.6673 27.3264 26.6673 25.4408 26.6673 21.6696Z" stroke="#080C17" stroke-width="2" stroke-linecap="round" stroke-linejoin="round"/>
<path d="M20.6673 3.00296H11.334C11.334 4.88857 11.334 5.83139 11.9198 6.41717C12.5056 7.00296 13.4484 7.00296 15.334 7.00296H16.6673C18.5529 7.00296 19.4957 7.00296 20.0816 6.41717C20.6673 5.83139 20.6673 4.88857 20.6673 3.00296Z" stroke="#080C17" stroke-width="2" stroke-linecap="round" stroke-linejoin="round"/>
<path d="M10 15.003L11.3333 16.3363L14 13.003" stroke="#080C17" stroke-width="2" stroke-linecap="round" stroke-linejoin="round"/>
<path d="M17.334 23.003H21.334M17.334 15.003H21.334" stroke="#080C17" stroke-width="2" stroke-linecap="round" stroke-linejoin="round"/>
<path d="M11.3203 22.8259H11.3336" stroke="#080C17" stroke-width="2.66667" stroke-linecap="round" stroke-linejoin="round"/>
</svg>
