<svg width="772" height="641" viewBox="0 0 772 641" fill="none" xmlns="http://www.w3.org/2000/svg">
<g filter="url(#filter0_i_2116_90)">
<path d="M575.189 453.396C583.528 459.27 595.116 457.303 600.36 448.554C623.696 409.623 636.017 365.07 636 319.681C635.997 309.481 627.066 301.839 616.893 302.594L566.601 306.327C556.428 307.082 548.904 315.959 548.505 326.152C547.519 351.328 540.712 375.941 528.622 398.046C523.727 406.996 525.621 418.478 533.961 424.352L575.189 453.396Z" fill="white"/>
<path d="M616.258 295.506C626.403 294.44 633.831 285.331 632.02 275.293C622.813 224.256 597.952 177.166 560.661 140.691C518.956 99.8979 464.32 74.9402 406.18 70.1241C348.04 65.308 290.042 80.9356 242.192 114.311C194.343 147.686 159.643 196.715 144.079 252.94C128.515 309.165 133.063 369.059 156.939 422.288C180.815 475.518 222.521 518.745 274.862 544.512C327.202 570.279 386.895 576.969 443.641 563.428C494.38 551.321 539.917 523.719 574.058 484.682C580.773 477.004 579.086 465.372 570.934 459.24L526.699 425.97C518.547 419.838 507.04 421.566 500 428.949C479.022 450.95 452.044 466.542 422.22 473.659C386.381 482.21 348.68 477.985 315.623 461.711C282.566 445.438 256.226 418.137 241.146 384.518C226.067 350.899 223.194 313.072 233.024 277.561C242.854 242.051 264.77 211.085 294.99 190.006C325.211 168.927 361.841 159.057 398.561 162.099C435.281 165.141 469.787 180.904 496.128 206.668C518.046 228.107 533.166 255.353 539.845 285.01C542.086 294.962 551.067 302.361 561.211 301.294L616.258 295.506Z" fill="#FC800B"/>
</g>
<rect x="17.5" y="161.769" width="232" height="63" rx="11.5" fill="#2E1B00"/>
<rect x="17.5" y="161.769" width="232" height="63" rx="11.5" stroke="url(#paint0_linear_2116_90)"/>
<path d="M34.992 203.269L34.88 202.989L40.928 190.613L41.516 192.489C41.2733 193.124 40.9467 193.702 40.536 194.225C40.1253 194.729 39.6493 195.168 39.108 195.541C38.5853 195.896 38.0347 196.176 37.456 196.381C36.8773 196.586 36.308 196.689 35.748 196.689C34.684 196.689 33.704 196.4 32.808 195.821C31.912 195.242 31.1933 194.477 30.652 193.525C30.1107 192.554 29.84 191.509 29.84 190.389C29.84 189.045 30.148 187.832 30.764 186.749C31.3987 185.666 32.2573 184.817 33.34 184.201C34.4227 183.566 35.6453 183.249 37.008 183.249C37.9787 183.249 38.8933 183.426 39.752 183.781C40.6107 184.117 41.3667 184.602 42.02 185.237C42.6733 185.853 43.1773 186.562 43.532 187.365C43.9053 188.168 44.092 189.026 44.092 189.941C44.092 190.538 44.036 191.145 43.924 191.761C43.812 192.377 43.644 193.021 43.42 193.693C43.196 194.346 42.9067 195.065 42.552 195.849C42.216 196.614 41.824 197.464 41.376 198.397L38.94 203.269H34.992ZM36.728 193.217C37.3627 193.217 37.9227 193.077 38.408 192.797C38.8933 192.517 39.276 192.144 39.556 191.677C39.836 191.192 39.976 190.66 39.976 190.081C39.976 189.446 39.836 188.886 39.556 188.401C39.2947 187.897 38.9213 187.505 38.436 187.225C37.9507 186.926 37.3907 186.777 36.756 186.777C36.1773 186.777 35.6547 186.917 35.188 187.197C34.74 187.477 34.376 187.86 34.096 188.345C33.8347 188.83 33.704 189.4 33.704 190.053C33.704 190.613 33.8347 191.136 34.096 191.621C34.376 192.106 34.74 192.498 35.188 192.797C35.6547 193.077 36.168 193.217 36.728 193.217ZM54.0421 203.549C52.3621 203.549 50.9247 203.148 49.7301 202.345C48.5541 201.542 47.6487 200.394 47.0141 198.901C46.3981 197.389 46.0901 195.578 46.0901 193.469C46.0901 191.36 46.3981 189.558 47.0141 188.065C47.6487 186.553 48.5541 185.396 49.7301 184.593C50.9247 183.79 52.3621 183.389 54.0421 183.389C55.7221 183.389 57.1594 183.79 58.3541 184.593C59.5487 185.396 60.4541 186.553 61.0701 188.065C61.7047 189.558 62.0221 191.36 62.0221 193.469C62.0221 195.578 61.7047 197.389 61.0701 198.901C60.4541 200.394 59.5487 201.542 58.3541 202.345C57.1594 203.148 55.7221 203.549 54.0421 203.549ZM54.0421 199.937C55.2927 199.937 56.2634 199.377 56.9541 198.257C57.6447 197.137 57.9901 195.541 57.9901 193.469C57.9901 191.36 57.6447 189.736 56.9541 188.597C56.2634 187.458 55.2927 186.889 54.0421 186.889C52.7727 186.889 51.7927 187.458 51.1021 188.597C50.4301 189.736 50.0941 191.36 50.0941 193.469C50.0941 195.541 50.4301 197.137 51.1021 198.257C51.7927 199.377 52.7727 199.937 54.0421 199.937ZM67.603 203.269L80.567 183.669H84.319L71.215 203.269H67.603ZM69.059 194.057C68.1444 194.057 67.323 193.824 66.595 193.357C65.8857 192.89 65.3257 192.256 64.915 191.453C64.523 190.632 64.327 189.698 64.327 188.653C64.327 187.608 64.523 186.674 64.915 185.853C65.3257 185.013 65.8857 184.369 66.595 183.921C67.3044 183.454 68.1257 183.221 69.059 183.221C69.9924 183.221 70.8044 183.454 71.495 183.921C72.2044 184.369 72.755 185.013 73.147 185.853C73.5577 186.674 73.763 187.608 73.763 188.653C73.763 189.68 73.5577 190.604 73.147 191.425C72.7364 192.228 72.1764 192.872 71.467 193.357C70.7577 193.824 69.955 194.057 69.059 194.057ZM69.059 191.425C69.395 191.425 69.6844 191.313 69.927 191.089C70.1697 190.865 70.347 190.548 70.459 190.137C70.5897 189.708 70.655 189.213 70.655 188.653C70.655 188.093 70.5897 187.598 70.459 187.169C70.347 186.74 70.1697 186.413 69.927 186.189C69.6844 185.965 69.395 185.853 69.059 185.853C68.723 185.853 68.4244 185.974 68.163 186.217C67.9204 186.441 67.7337 186.768 67.603 187.197C67.4724 187.608 67.407 188.093 67.407 188.653C67.407 189.213 67.4724 189.708 67.603 190.137C67.7337 190.548 67.9204 190.865 68.163 191.089C68.4244 191.313 68.723 191.425 69.059 191.425ZM83.171 203.521C82.2564 203.521 81.435 203.288 80.707 202.821C79.9977 202.354 79.4377 201.72 79.027 200.917C78.6164 200.096 78.411 199.172 78.411 198.145C78.411 197.081 78.607 196.138 78.999 195.317C79.4097 194.496 79.9697 193.852 80.679 193.385C81.407 192.918 82.2377 192.685 83.171 192.685C84.0857 192.685 84.8977 192.918 85.607 193.385C86.3164 193.852 86.867 194.496 87.259 195.317C87.651 196.138 87.847 197.081 87.847 198.145C87.847 199.153 87.6417 200.068 87.231 200.889C86.8204 201.71 86.2604 202.354 85.551 202.821C84.8604 203.288 84.067 203.521 83.171 203.521ZM83.171 200.917C83.4884 200.917 83.7684 200.805 84.011 200.581C84.2724 200.338 84.4684 200.012 84.599 199.601C84.7297 199.19 84.795 198.705 84.795 198.145C84.795 197.566 84.7297 197.072 84.599 196.661C84.4684 196.232 84.2724 195.905 84.011 195.681C83.7684 195.438 83.4884 195.317 83.171 195.317C82.8164 195.317 82.5177 195.438 82.275 195.681C82.0324 195.905 81.8364 196.232 81.687 196.661C81.5564 197.072 81.491 197.566 81.491 198.145C81.491 198.705 81.5564 199.19 81.687 199.601C81.8177 200.012 82.0044 200.338 82.247 200.581C82.5084 200.805 82.8164 200.917 83.171 200.917Z" fill="#FFBC00"/>
<path d="M113.754 186.909C113.045 186.909 112.382 186.783 111.766 186.531C111.15 186.27 110.609 185.91 110.142 185.453C109.675 184.996 109.311 184.464 109.05 183.857C108.798 183.241 108.672 182.578 108.672 181.869C108.672 181.169 108.798 180.516 109.05 179.909C109.311 179.302 109.671 178.775 110.128 178.327C110.595 177.87 111.136 177.515 111.752 177.263C112.368 177.011 113.031 176.885 113.74 176.885C114.235 176.885 114.715 176.955 115.182 177.095C115.658 177.235 116.087 177.431 116.47 177.683C116.853 177.935 117.165 178.224 117.408 178.551L116.428 179.573C116.148 179.302 115.859 179.078 115.56 178.901C115.271 178.724 114.972 178.588 114.664 178.495C114.356 178.402 114.048 178.355 113.74 178.355C113.236 178.355 112.769 178.444 112.34 178.621C111.92 178.798 111.547 179.046 111.22 179.363C110.903 179.68 110.655 180.054 110.478 180.483C110.301 180.903 110.212 181.365 110.212 181.869C110.212 182.354 110.305 182.816 110.492 183.255C110.679 183.684 110.935 184.062 111.262 184.389C111.598 184.716 111.981 184.972 112.41 185.159C112.849 185.346 113.311 185.439 113.796 185.439C114.16 185.439 114.505 185.388 114.832 185.285C115.159 185.173 115.448 185.019 115.7 184.823C115.952 184.627 116.148 184.403 116.288 184.151C116.428 183.89 116.498 183.614 116.498 183.325V183.045L116.708 183.241H113.712V181.743H118.052C118.071 181.846 118.085 181.948 118.094 182.051C118.103 182.144 118.108 182.238 118.108 182.331C118.117 182.415 118.122 182.499 118.122 182.583C118.122 183.227 118.01 183.815 117.786 184.347C117.562 184.87 117.249 185.322 116.848 185.705C116.456 186.088 115.994 186.386 115.462 186.601C114.939 186.806 114.37 186.909 113.754 186.909ZM123.031 186.909C122.312 186.909 121.668 186.746 121.099 186.419C120.539 186.083 120.095 185.63 119.769 185.061C119.442 184.482 119.279 183.824 119.279 183.087C119.279 182.35 119.442 181.696 119.769 181.127C120.095 180.548 120.539 180.096 121.099 179.769C121.668 179.433 122.312 179.265 123.031 179.265C123.74 179.265 124.375 179.433 124.935 179.769C125.504 180.096 125.952 180.548 126.279 181.127C126.605 181.696 126.769 182.35 126.769 183.087C126.769 183.824 126.605 184.482 126.279 185.061C125.952 185.63 125.504 186.083 124.935 186.419C124.375 186.746 123.74 186.909 123.031 186.909ZM123.031 185.593C123.469 185.593 123.861 185.486 124.207 185.271C124.552 185.047 124.823 184.748 125.019 184.375C125.215 183.992 125.308 183.563 125.299 183.087C125.308 182.602 125.215 182.172 125.019 181.799C124.823 181.416 124.552 181.118 124.207 180.903C123.861 180.688 123.469 180.581 123.031 180.581C122.592 180.581 122.195 180.693 121.841 180.917C121.495 181.132 121.225 181.43 121.029 181.813C120.833 182.186 120.739 182.611 120.749 183.087C120.739 183.563 120.833 183.992 121.029 184.375C121.225 184.748 121.495 185.047 121.841 185.271C122.195 185.486 122.592 185.593 123.031 185.593ZM131.77 186.909C131.014 186.909 130.342 186.75 129.754 186.433C129.175 186.106 128.718 185.663 128.382 185.103C128.055 184.543 127.892 183.899 127.892 183.171C127.892 182.592 127.985 182.065 128.172 181.589C128.359 181.113 128.615 180.702 128.942 180.357C129.278 180.002 129.675 179.732 130.132 179.545C130.599 179.349 131.103 179.251 131.644 179.251C132.12 179.251 132.563 179.344 132.974 179.531C133.385 179.708 133.739 179.956 134.038 180.273C134.346 180.59 134.579 180.968 134.738 181.407C134.906 181.836 134.985 182.308 134.976 182.821L134.962 183.437H128.956L128.634 182.289H133.716L133.506 182.527V182.191C133.478 181.883 133.375 181.608 133.198 181.365C133.021 181.122 132.797 180.931 132.526 180.791C132.255 180.651 131.961 180.581 131.644 180.581C131.14 180.581 130.715 180.679 130.37 180.875C130.025 181.062 129.763 181.342 129.586 181.715C129.409 182.079 129.32 182.532 129.32 183.073C129.32 183.586 129.427 184.034 129.642 184.417C129.857 184.79 130.16 185.08 130.552 185.285C130.944 185.49 131.397 185.593 131.91 185.593C132.274 185.593 132.61 185.532 132.918 185.411C133.235 185.29 133.576 185.07 133.94 184.753L134.668 185.775C134.444 185.999 134.169 186.195 133.842 186.363C133.525 186.531 133.184 186.666 132.82 186.769C132.465 186.862 132.115 186.909 131.77 186.909ZM138.993 186.909C138.377 186.909 137.822 186.802 137.327 186.587C136.832 186.372 136.422 186.055 136.095 185.635L137.075 184.795C137.355 185.122 137.658 185.36 137.985 185.509C138.321 185.649 138.699 185.719 139.119 185.719C139.287 185.719 139.441 185.7 139.581 185.663C139.73 185.616 139.856 185.551 139.959 185.467C140.071 185.383 140.155 185.285 140.211 185.173C140.267 185.052 140.295 184.921 140.295 184.781C140.295 184.538 140.206 184.342 140.029 184.193C139.936 184.128 139.786 184.058 139.581 183.983C139.385 183.899 139.128 183.815 138.811 183.731C138.27 183.591 137.826 183.432 137.481 183.255C137.136 183.078 136.87 182.877 136.683 182.653C136.543 182.476 136.44 182.284 136.375 182.079C136.31 181.864 136.277 181.631 136.277 181.379C136.277 181.071 136.342 180.791 136.473 180.539C136.613 180.278 136.8 180.054 137.033 179.867C137.276 179.671 137.556 179.522 137.873 179.419C138.2 179.316 138.545 179.265 138.909 179.265C139.254 179.265 139.595 179.312 139.931 179.405C140.276 179.498 140.594 179.634 140.883 179.811C141.172 179.988 141.415 180.198 141.611 180.441L140.785 181.351C140.608 181.174 140.412 181.02 140.197 180.889C139.992 180.749 139.782 180.642 139.567 180.567C139.352 180.492 139.156 180.455 138.979 180.455C138.783 180.455 138.606 180.474 138.447 180.511C138.288 180.548 138.153 180.604 138.041 180.679C137.938 180.754 137.859 180.847 137.803 180.959C137.747 181.071 137.719 181.197 137.719 181.337C137.728 181.458 137.756 181.575 137.803 181.687C137.859 181.79 137.934 181.878 138.027 181.953C138.13 182.028 138.284 182.107 138.489 182.191C138.694 182.275 138.956 182.354 139.273 182.429C139.74 182.55 140.122 182.686 140.421 182.835C140.729 182.975 140.972 183.138 141.149 183.325C141.336 183.502 141.466 183.708 141.541 183.941C141.616 184.174 141.653 184.436 141.653 184.725C141.653 185.145 141.532 185.523 141.289 185.859C141.056 186.186 140.738 186.442 140.337 186.629C139.936 186.816 139.488 186.909 138.993 186.909ZM148.076 186.769V177.543H149.518V186.769H148.076ZM146.55 180.819V179.419H151.226V180.819H146.55ZM155.775 186.909C155.056 186.909 154.412 186.746 153.843 186.419C153.283 186.083 152.84 185.63 152.513 185.061C152.186 184.482 152.023 183.824 152.023 183.087C152.023 182.35 152.186 181.696 152.513 181.127C152.84 180.548 153.283 180.096 153.843 179.769C154.412 179.433 155.056 179.265 155.775 179.265C156.484 179.265 157.119 179.433 157.679 179.769C158.248 180.096 158.696 180.548 159.023 181.127C159.35 181.696 159.513 182.35 159.513 183.087C159.513 183.824 159.35 184.482 159.023 185.061C158.696 185.63 158.248 186.083 157.679 186.419C157.119 186.746 156.484 186.909 155.775 186.909ZM155.775 185.593C156.214 185.593 156.606 185.486 156.951 185.271C157.296 185.047 157.567 184.748 157.763 184.375C157.959 183.992 158.052 183.563 158.043 183.087C158.052 182.602 157.959 182.172 157.763 181.799C157.567 181.416 157.296 181.118 156.951 180.903C156.606 180.688 156.214 180.581 155.775 180.581C155.336 180.581 154.94 180.693 154.585 180.917C154.24 181.132 153.969 181.43 153.773 181.813C153.577 182.186 153.484 182.611 153.493 183.087C153.484 183.563 153.577 183.992 153.773 184.375C153.969 184.748 154.24 185.047 154.585 185.271C154.94 185.486 155.336 185.593 155.775 185.593ZM113.348 208.909C112.667 208.909 112.041 208.788 111.472 208.545C110.903 208.302 110.408 207.957 109.988 207.509C109.568 207.052 109.241 206.515 109.008 205.899C108.784 205.283 108.672 204.606 108.672 203.869C108.672 203.169 108.793 202.52 109.036 201.923C109.288 201.316 109.633 200.784 110.072 200.327C110.511 199.87 111.019 199.515 111.598 199.263C112.177 199.011 112.802 198.885 113.474 198.885C113.95 198.885 114.412 198.96 114.86 199.109C115.317 199.249 115.728 199.45 116.092 199.711C116.465 199.963 116.769 200.252 117.002 200.579L115.994 201.629C115.723 201.358 115.448 201.134 115.168 200.957C114.897 200.77 114.617 200.63 114.328 200.537C114.048 200.444 113.763 200.397 113.474 200.397C113.017 200.397 112.587 200.486 112.186 200.663C111.794 200.831 111.449 201.069 111.15 201.377C110.861 201.685 110.632 202.054 110.464 202.483C110.296 202.903 110.212 203.365 110.212 203.869C110.212 204.401 110.291 204.886 110.45 205.325C110.618 205.754 110.851 206.123 111.15 206.431C111.449 206.739 111.803 206.977 112.214 207.145C112.634 207.304 113.096 207.383 113.6 207.383C113.908 207.383 114.211 207.341 114.51 207.257C114.809 207.173 115.089 207.052 115.35 206.893C115.611 206.734 115.849 206.548 116.064 206.333L116.82 207.565C116.605 207.817 116.311 208.046 115.938 208.251C115.574 208.456 115.163 208.62 114.706 208.741C114.258 208.853 113.805 208.909 113.348 208.909ZM118.51 208.769L118.51 201.419H119.966V203.729L119.826 203.169C119.929 202.814 120.101 202.492 120.344 202.203C120.596 201.914 120.881 201.685 121.198 201.517C121.525 201.349 121.861 201.265 122.206 201.265C122.365 201.265 122.514 201.279 122.654 201.307C122.803 201.335 122.92 201.368 123.004 201.405L122.626 202.973C122.514 202.926 122.388 202.889 122.248 202.861C122.117 202.824 121.987 202.805 121.856 202.805C121.604 202.805 121.361 202.856 121.128 202.959C120.904 203.052 120.703 203.188 120.526 203.365C120.358 203.533 120.223 203.734 120.12 203.967C120.017 204.191 119.966 204.438 119.966 204.709L119.966 208.769H118.51ZM127.272 208.909C126.516 208.909 125.844 208.75 125.256 208.433C124.677 208.106 124.22 207.663 123.884 207.103C123.557 206.543 123.394 205.899 123.394 205.171C123.394 204.592 123.487 204.065 123.674 203.589C123.861 203.113 124.117 202.702 124.444 202.357C124.78 202.002 125.177 201.732 125.634 201.545C126.101 201.349 126.605 201.251 127.146 201.251C127.622 201.251 128.065 201.344 128.476 201.531C128.887 201.708 129.241 201.956 129.54 202.273C129.848 202.59 130.081 202.968 130.24 203.407C130.408 203.836 130.487 204.308 130.478 204.821L130.464 205.437H124.458L124.136 204.289H129.218L129.008 204.527V204.191C128.98 203.883 128.877 203.608 128.7 203.365C128.523 203.122 128.299 202.931 128.028 202.791C127.757 202.651 127.463 202.581 127.146 202.581C126.642 202.581 126.217 202.679 125.872 202.875C125.527 203.062 125.265 203.342 125.088 203.715C124.911 204.079 124.822 204.532 124.822 205.073C124.822 205.586 124.929 206.034 125.144 206.417C125.359 206.79 125.662 207.08 126.054 207.285C126.446 207.49 126.899 207.593 127.412 207.593C127.776 207.593 128.112 207.532 128.42 207.411C128.737 207.29 129.078 207.07 129.442 206.753L130.17 207.775C129.946 207.999 129.671 208.195 129.344 208.363C129.027 208.531 128.686 208.666 128.322 208.769C127.967 208.862 127.617 208.909 127.272 208.909ZM134.873 208.909C134.266 208.909 133.711 208.741 133.207 208.405C132.712 208.069 132.316 207.612 132.017 207.033C131.718 206.454 131.569 205.801 131.569 205.073C131.569 204.336 131.718 203.682 132.017 203.113C132.325 202.534 132.736 202.082 133.249 201.755C133.772 201.428 134.355 201.265 134.999 201.265C135.382 201.265 135.732 201.321 136.049 201.433C136.366 201.545 136.642 201.704 136.875 201.909C137.118 202.105 137.314 202.334 137.463 202.595C137.622 202.856 137.72 203.136 137.757 203.435L137.435 203.323V201.419H138.891V208.769H137.435V207.019L137.771 206.921C137.715 207.173 137.598 207.42 137.421 207.663C137.253 207.896 137.034 208.106 136.763 208.293C136.502 208.48 136.208 208.629 135.881 208.741C135.564 208.853 135.228 208.909 134.873 208.909ZM135.251 207.579C135.69 207.579 136.077 207.472 136.413 207.257C136.749 207.042 137.01 206.748 137.197 206.375C137.393 205.992 137.491 205.558 137.491 205.073C137.491 204.597 137.393 204.172 137.197 203.799C137.01 203.426 136.749 203.132 136.413 202.917C136.077 202.702 135.69 202.595 135.251 202.595C134.822 202.595 134.439 202.702 134.103 202.917C133.776 203.132 133.515 203.426 133.319 203.799C133.132 204.172 133.039 204.597 133.039 205.073C133.039 205.558 133.132 205.992 133.319 206.375C133.515 206.748 133.776 207.042 134.103 207.257C134.439 207.472 134.822 207.579 135.251 207.579ZM141.814 208.769V199.543H143.256V208.769H141.814ZM140.288 202.819V201.419H144.964V202.819H140.288ZM149.513 208.909C148.795 208.909 148.151 208.746 147.581 208.419C147.021 208.083 146.578 207.63 146.251 207.061C145.925 206.482 145.761 205.824 145.761 205.087C145.761 204.35 145.925 203.696 146.251 203.127C146.578 202.548 147.021 202.096 147.581 201.769C148.151 201.433 148.795 201.265 149.513 201.265C150.223 201.265 150.857 201.433 151.417 201.769C151.987 202.096 152.435 202.548 152.761 203.127C153.088 203.696 153.251 204.35 153.251 205.087C153.251 205.824 153.088 206.482 152.761 207.061C152.435 207.63 151.987 208.083 151.417 208.419C150.857 208.746 150.223 208.909 149.513 208.909ZM149.513 207.593C149.952 207.593 150.344 207.486 150.689 207.271C151.035 207.047 151.305 206.748 151.501 206.375C151.697 205.992 151.791 205.563 151.781 205.087C151.791 204.602 151.697 204.172 151.501 203.799C151.305 203.416 151.035 203.118 150.689 202.903C150.344 202.688 149.952 202.581 149.513 202.581C149.075 202.581 148.678 202.693 148.323 202.917C147.978 203.132 147.707 203.43 147.511 203.813C147.315 204.186 147.222 204.611 147.231 205.087C147.222 205.563 147.315 205.992 147.511 206.375C147.707 206.748 147.978 207.047 148.323 207.271C148.678 207.486 149.075 207.593 149.513 207.593ZM154.822 208.769V201.419H156.278V203.729L156.138 203.169C156.241 202.814 156.414 202.492 156.656 202.203C156.908 201.914 157.193 201.685 157.51 201.517C157.837 201.349 158.173 201.265 158.518 201.265C158.677 201.265 158.826 201.279 158.966 201.307C159.116 201.335 159.232 201.368 159.316 201.405L158.938 202.973C158.826 202.926 158.7 202.889 158.56 202.861C158.43 202.824 158.299 202.805 158.168 202.805C157.916 202.805 157.674 202.856 157.44 202.959C157.216 203.052 157.016 203.188 156.838 203.365C156.67 203.533 156.535 203.734 156.432 203.967C156.33 204.191 156.278 204.438 156.278 204.709V208.769H154.822ZM160.97 202.119L160.438 201.475C160.802 201.307 161.101 201.116 161.334 200.901C161.568 200.686 161.684 200.5 161.684 200.341C161.684 200.22 161.633 200.112 161.53 200.019C161.428 199.916 161.334 199.832 161.25 199.767C161.045 199.599 160.905 199.459 160.83 199.347C160.765 199.235 160.732 199.118 160.732 198.997C160.732 198.773 160.812 198.596 160.97 198.465C161.129 198.325 161.334 198.255 161.586 198.255C161.848 198.255 162.081 198.325 162.286 198.465C162.501 198.596 162.669 198.778 162.79 199.011C162.912 199.244 162.972 199.52 162.972 199.837C162.972 200.08 162.921 200.318 162.818 200.551C162.716 200.784 162.571 201.004 162.384 201.209C162.207 201.414 161.997 201.596 161.754 201.755C161.512 201.914 161.25 202.035 160.97 202.119ZM166.993 208.909C166.377 208.909 165.822 208.802 165.327 208.587C164.832 208.372 164.422 208.055 164.095 207.635L165.075 206.795C165.355 207.122 165.658 207.36 165.985 207.509C166.321 207.649 166.699 207.719 167.119 207.719C167.287 207.719 167.441 207.7 167.581 207.663C167.73 207.616 167.856 207.551 167.959 207.467C168.071 207.383 168.155 207.285 168.211 207.173C168.267 207.052 168.295 206.921 168.295 206.781C168.295 206.538 168.206 206.342 168.029 206.193C167.936 206.128 167.786 206.058 167.581 205.983C167.385 205.899 167.128 205.815 166.811 205.731C166.27 205.591 165.826 205.432 165.481 205.255C165.136 205.078 164.87 204.877 164.683 204.653C164.543 204.476 164.44 204.284 164.375 204.079C164.31 203.864 164.277 203.631 164.277 203.379C164.277 203.071 164.342 202.791 164.473 202.539C164.613 202.278 164.8 202.054 165.033 201.867C165.276 201.671 165.556 201.522 165.873 201.419C166.2 201.316 166.545 201.265 166.909 201.265C167.254 201.265 167.595 201.312 167.931 201.405C168.276 201.498 168.594 201.634 168.883 201.811C169.172 201.988 169.415 202.198 169.611 202.441L168.785 203.351C168.608 203.174 168.412 203.02 168.197 202.889C167.992 202.749 167.782 202.642 167.567 202.567C167.352 202.492 167.156 202.455 166.979 202.455C166.783 202.455 166.606 202.474 166.447 202.511C166.288 202.548 166.153 202.604 166.041 202.679C165.938 202.754 165.859 202.847 165.803 202.959C165.747 203.071 165.719 203.197 165.719 203.337C165.728 203.458 165.756 203.575 165.803 203.687C165.859 203.79 165.934 203.878 166.027 203.953C166.13 204.028 166.284 204.107 166.489 204.191C166.694 204.275 166.956 204.354 167.273 204.429C167.74 204.55 168.122 204.686 168.421 204.835C168.729 204.975 168.972 205.138 169.149 205.325C169.336 205.502 169.466 205.708 169.541 205.941C169.616 206.174 169.653 206.436 169.653 206.725C169.653 207.145 169.532 207.523 169.289 207.859C169.056 208.186 168.738 208.442 168.337 208.629C167.936 208.816 167.488 208.909 166.993 208.909ZM177.616 208.769L174.494 198.969H176.104L177.994 205.101C178.05 205.25 178.102 205.428 178.148 205.633C178.195 205.829 178.237 206.03 178.274 206.235C178.312 206.44 178.344 206.632 178.372 206.809C178.41 206.986 178.442 207.131 178.47 207.243L178.064 207.229C178.204 206.734 178.312 206.352 178.386 206.081C178.47 205.81 178.536 205.605 178.582 205.465C178.629 205.316 178.671 205.19 178.708 205.087L180.472 200.663H181.83L183.538 205.087C183.632 205.311 183.711 205.535 183.776 205.759C183.851 205.974 183.916 206.193 183.972 206.417C184.028 206.632 184.089 206.86 184.154 207.103L183.79 207.201C183.837 206.949 183.87 206.753 183.888 206.613C183.916 206.464 183.94 206.342 183.958 206.249C183.977 206.156 183.996 206.067 184.014 205.983C184.033 205.89 184.061 205.773 184.098 205.633C184.145 205.493 184.206 205.302 184.28 205.059L186.142 198.969H187.766L184.644 208.769H183.594L181.004 202.637L181.13 202.693L178.638 208.769H177.616ZM191.584 208.909C190.977 208.909 190.422 208.741 189.918 208.405C189.423 208.069 189.027 207.612 188.728 207.033C188.429 206.454 188.28 205.801 188.28 205.073C188.28 204.336 188.429 203.682 188.728 203.113C189.036 202.534 189.447 202.082 189.96 201.755C190.483 201.428 191.066 201.265 191.71 201.265C192.093 201.265 192.443 201.321 192.76 201.433C193.077 201.545 193.353 201.704 193.586 201.909C193.829 202.105 194.025 202.334 194.174 202.595C194.333 202.856 194.431 203.136 194.468 203.435L194.146 203.323V201.419H195.602V208.769H194.146V207.019L194.482 206.921C194.426 207.173 194.309 207.42 194.132 207.663C193.964 207.896 193.745 208.106 193.474 208.293C193.213 208.48 192.919 208.629 192.592 208.741C192.275 208.853 191.939 208.909 191.584 208.909ZM191.962 207.579C192.401 207.579 192.788 207.472 193.124 207.257C193.46 207.042 193.721 206.748 193.908 206.375C194.104 205.992 194.202 205.558 194.202 205.073C194.202 204.597 194.104 204.172 193.908 203.799C193.721 203.426 193.46 203.132 193.124 202.917C192.788 202.702 192.401 202.595 191.962 202.595C191.533 202.595 191.15 202.702 190.814 202.917C190.487 203.132 190.226 203.426 190.03 203.799C189.843 204.172 189.75 204.597 189.75 205.073C189.75 205.558 189.843 205.992 190.03 206.375C190.226 206.748 190.487 207.042 190.814 207.257C191.15 207.472 191.533 207.579 191.962 207.579ZM197.643 208.769V198.409H199.085V208.769H197.643ZM201.157 208.769V198.409H202.599V208.769H201.157ZM207.936 208.909C207.18 208.909 206.508 208.75 205.92 208.433C205.341 208.106 204.884 207.663 204.548 207.103C204.221 206.543 204.058 205.899 204.058 205.171C204.058 204.592 204.151 204.065 204.338 203.589C204.525 203.113 204.781 202.702 205.108 202.357C205.444 202.002 205.841 201.732 206.298 201.545C206.765 201.349 207.269 201.251 207.81 201.251C208.286 201.251 208.729 201.344 209.14 201.531C209.551 201.708 209.905 201.956 210.204 202.273C210.512 202.59 210.745 202.968 210.904 203.407C211.072 203.836 211.151 204.308 211.142 204.821L211.128 205.437H205.122L204.8 204.289H209.882L209.672 204.527V204.191C209.644 203.883 209.541 203.608 209.364 203.365C209.187 203.122 208.963 202.931 208.692 202.791C208.421 202.651 208.127 202.581 207.81 202.581C207.306 202.581 206.881 202.679 206.536 202.875C206.191 203.062 205.929 203.342 205.752 203.715C205.575 204.079 205.486 204.532 205.486 205.073C205.486 205.586 205.593 206.034 205.808 206.417C206.023 206.79 206.326 207.08 206.718 207.285C207.11 207.49 207.563 207.593 208.076 207.593C208.44 207.593 208.776 207.532 209.084 207.411C209.401 207.29 209.742 207.07 210.106 206.753L210.834 207.775C210.61 207.999 210.335 208.195 210.008 208.363C209.691 208.531 209.35 208.666 208.986 208.769C208.631 208.862 208.281 208.909 207.936 208.909ZM213.619 208.769V199.543H215.061V208.769H213.619ZM212.093 202.819V201.419H216.769V202.819H212.093Z" fill="#FFBC00"/>
<rect x="349.5" y="338.769" width="242" height="63" rx="11.5" fill="#1F1F1F"/>
<rect x="349.5" y="338.769" width="242" height="63" rx="11.5" stroke="url(#paint1_linear_2116_90)"/>
<path d="M366.964 378.897V362.993L368 364.869L363.912 366.857L363.1 363.133L368.56 360.389H371.108V378.897H366.964ZM363.52 380.269V376.489H374.636V380.269H363.52ZM385.304 380.549C383.624 380.549 382.186 380.148 380.992 379.345C379.816 378.542 378.91 377.394 378.276 375.901C377.66 374.389 377.352 372.578 377.352 370.469C377.352 368.36 377.66 366.558 378.276 365.065C378.91 363.553 379.816 362.396 380.992 361.593C382.186 360.79 383.624 360.389 385.304 360.389C386.984 360.389 388.421 360.79 389.616 361.593C390.81 362.396 391.716 363.553 392.332 365.065C392.966 366.558 393.284 368.36 393.284 370.469C393.284 372.578 392.966 374.389 392.332 375.901C391.716 377.394 390.81 378.542 389.616 379.345C388.421 380.148 386.984 380.549 385.304 380.549ZM385.304 376.937C386.554 376.937 387.525 376.377 388.216 375.257C388.906 374.137 389.252 372.541 389.252 370.469C389.252 368.36 388.906 366.736 388.216 365.597C387.525 364.458 386.554 363.889 385.304 363.889C384.034 363.889 383.054 364.458 382.364 365.597C381.692 366.736 381.356 368.36 381.356 370.469C381.356 372.541 381.692 374.137 382.364 375.257C383.054 376.377 384.034 376.937 385.304 376.937ZM398.865 380.269L411.829 360.669H415.581L402.477 380.269H398.865ZM400.321 371.057C399.406 371.057 398.585 370.824 397.857 370.357C397.147 369.89 396.587 369.256 396.177 368.453C395.785 367.632 395.589 366.698 395.589 365.653C395.589 364.608 395.785 363.674 396.177 362.853C396.587 362.013 397.147 361.369 397.857 360.921C398.566 360.454 399.387 360.221 400.321 360.221C401.254 360.221 402.066 360.454 402.757 360.921C403.466 361.369 404.017 362.013 404.409 362.853C404.819 363.674 405.025 364.608 405.025 365.653C405.025 366.68 404.819 367.604 404.409 368.425C403.998 369.228 403.438 369.872 402.729 370.357C402.019 370.824 401.217 371.057 400.321 371.057ZM400.321 368.425C400.657 368.425 400.946 368.313 401.189 368.089C401.431 367.865 401.609 367.548 401.721 367.137C401.851 366.708 401.917 366.213 401.917 365.653C401.917 365.093 401.851 364.598 401.721 364.169C401.609 363.74 401.431 363.413 401.189 363.189C400.946 362.965 400.657 362.853 400.321 362.853C399.985 362.853 399.686 362.974 399.425 363.217C399.182 363.441 398.995 363.768 398.865 364.197C398.734 364.608 398.669 365.093 398.669 365.653C398.669 366.213 398.734 366.708 398.865 367.137C398.995 367.548 399.182 367.865 399.425 368.089C399.686 368.313 399.985 368.425 400.321 368.425ZM414.433 380.521C413.518 380.521 412.697 380.288 411.969 379.821C411.259 379.354 410.699 378.72 410.289 377.917C409.878 377.096 409.673 376.172 409.673 375.145C409.673 374.081 409.869 373.138 410.261 372.317C410.671 371.496 411.231 370.852 411.941 370.385C412.669 369.918 413.499 369.685 414.433 369.685C415.347 369.685 416.159 369.918 416.869 370.385C417.578 370.852 418.129 371.496 418.521 372.317C418.913 373.138 419.109 374.081 419.109 375.145C419.109 376.153 418.903 377.068 418.493 377.889C418.082 378.71 417.522 379.354 416.813 379.821C416.122 380.288 415.329 380.521 414.433 380.521ZM414.433 377.917C414.75 377.917 415.03 377.805 415.273 377.581C415.534 377.338 415.73 377.012 415.861 376.601C415.991 376.19 416.057 375.705 416.057 375.145C416.057 374.566 415.991 374.072 415.861 373.661C415.73 373.232 415.534 372.905 415.273 372.681C415.03 372.438 414.75 372.317 414.433 372.317C414.078 372.317 413.779 372.438 413.537 372.681C413.294 372.905 413.098 373.232 412.949 373.661C412.818 374.072 412.753 374.566 412.753 375.145C412.753 375.705 412.818 376.19 412.949 376.601C413.079 377.012 413.266 377.338 413.509 377.581C413.77 377.805 414.078 377.917 414.433 377.917Z" fill="white"/>
<path d="M444.754 363.909C444.045 363.909 443.382 363.783 442.766 363.531C442.15 363.27 441.609 362.91 441.142 362.453C440.675 361.996 440.311 361.464 440.05 360.857C439.798 360.241 439.672 359.578 439.672 358.869C439.672 358.169 439.798 357.516 440.05 356.909C440.311 356.302 440.671 355.775 441.128 355.327C441.595 354.87 442.136 354.515 442.752 354.263C443.368 354.011 444.031 353.885 444.74 353.885C445.235 353.885 445.715 353.955 446.182 354.095C446.658 354.235 447.087 354.431 447.47 354.683C447.853 354.935 448.165 355.224 448.408 355.551L447.428 356.573C447.148 356.302 446.859 356.078 446.56 355.901C446.271 355.724 445.972 355.588 445.664 355.495C445.356 355.402 445.048 355.355 444.74 355.355C444.236 355.355 443.769 355.444 443.34 355.621C442.92 355.798 442.547 356.046 442.22 356.363C441.903 356.68 441.655 357.054 441.478 357.483C441.301 357.903 441.212 358.365 441.212 358.869C441.212 359.354 441.305 359.816 441.492 360.255C441.679 360.684 441.935 361.062 442.262 361.389C442.598 361.716 442.981 361.972 443.41 362.159C443.849 362.346 444.311 362.439 444.796 362.439C445.16 362.439 445.505 362.388 445.832 362.285C446.159 362.173 446.448 362.019 446.7 361.823C446.952 361.627 447.148 361.403 447.288 361.151C447.428 360.89 447.498 360.614 447.498 360.325V360.045L447.708 360.241H444.712V358.743H449.052C449.071 358.846 449.085 358.948 449.094 359.051C449.103 359.144 449.108 359.238 449.108 359.331C449.117 359.415 449.122 359.499 449.122 359.583C449.122 360.227 449.01 360.815 448.786 361.347C448.562 361.87 448.249 362.322 447.848 362.705C447.456 363.088 446.994 363.386 446.462 363.601C445.939 363.806 445.37 363.909 444.754 363.909ZM454.031 363.909C453.312 363.909 452.668 363.746 452.099 363.419C451.539 363.083 451.095 362.63 450.769 362.061C450.442 361.482 450.279 360.824 450.279 360.087C450.279 359.35 450.442 358.696 450.769 358.127C451.095 357.548 451.539 357.096 452.099 356.769C452.668 356.433 453.312 356.265 454.031 356.265C454.74 356.265 455.375 356.433 455.935 356.769C456.504 357.096 456.952 357.548 457.279 358.127C457.605 358.696 457.769 359.35 457.769 360.087C457.769 360.824 457.605 361.482 457.279 362.061C456.952 362.63 456.504 363.083 455.935 363.419C455.375 363.746 454.74 363.909 454.031 363.909ZM454.031 362.593C454.469 362.593 454.861 362.486 455.207 362.271C455.552 362.047 455.823 361.748 456.019 361.375C456.215 360.992 456.308 360.563 456.299 360.087C456.308 359.602 456.215 359.172 456.019 358.799C455.823 358.416 455.552 358.118 455.207 357.903C454.861 357.688 454.469 357.581 454.031 357.581C453.592 357.581 453.195 357.693 452.841 357.917C452.495 358.132 452.225 358.43 452.029 358.813C451.833 359.186 451.739 359.611 451.749 360.087C451.739 360.563 451.833 360.992 452.029 361.375C452.225 361.748 452.495 362.047 452.841 362.271C453.195 362.486 453.592 362.593 454.031 362.593ZM462.77 363.909C462.014 363.909 461.342 363.75 460.754 363.433C460.175 363.106 459.718 362.663 459.382 362.103C459.055 361.543 458.892 360.899 458.892 360.171C458.892 359.592 458.985 359.065 459.172 358.589C459.359 358.113 459.615 357.702 459.942 357.357C460.278 357.002 460.675 356.732 461.132 356.545C461.599 356.349 462.103 356.251 462.644 356.251C463.12 356.251 463.563 356.344 463.974 356.531C464.385 356.708 464.739 356.956 465.038 357.273C465.346 357.59 465.579 357.968 465.738 358.407C465.906 358.836 465.985 359.308 465.976 359.821L465.962 360.437H459.956L459.634 359.289H464.716L464.506 359.527V359.191C464.478 358.883 464.375 358.608 464.198 358.365C464.021 358.122 463.797 357.931 463.526 357.791C463.255 357.651 462.961 357.581 462.644 357.581C462.14 357.581 461.715 357.679 461.37 357.875C461.025 358.062 460.763 358.342 460.586 358.715C460.409 359.079 460.32 359.532 460.32 360.073C460.32 360.586 460.427 361.034 460.642 361.417C460.857 361.79 461.16 362.08 461.552 362.285C461.944 362.49 462.397 362.593 462.91 362.593C463.274 362.593 463.61 362.532 463.918 362.411C464.235 362.29 464.576 362.07 464.94 361.753L465.668 362.775C465.444 362.999 465.169 363.195 464.842 363.363C464.525 363.531 464.184 363.666 463.82 363.769C463.465 363.862 463.115 363.909 462.77 363.909ZM469.993 363.909C469.377 363.909 468.822 363.802 468.327 363.587C467.832 363.372 467.422 363.055 467.095 362.635L468.075 361.795C468.355 362.122 468.658 362.36 468.985 362.509C469.321 362.649 469.699 362.719 470.119 362.719C470.287 362.719 470.441 362.7 470.581 362.663C470.73 362.616 470.856 362.551 470.959 362.467C471.071 362.383 471.155 362.285 471.211 362.173C471.267 362.052 471.295 361.921 471.295 361.781C471.295 361.538 471.206 361.342 471.029 361.193C470.936 361.128 470.786 361.058 470.581 360.983C470.385 360.899 470.128 360.815 469.811 360.731C469.27 360.591 468.826 360.432 468.481 360.255C468.136 360.078 467.87 359.877 467.683 359.653C467.543 359.476 467.44 359.284 467.375 359.079C467.31 358.864 467.277 358.631 467.277 358.379C467.277 358.071 467.342 357.791 467.473 357.539C467.613 357.278 467.8 357.054 468.033 356.867C468.276 356.671 468.556 356.522 468.873 356.419C469.2 356.316 469.545 356.265 469.909 356.265C470.254 356.265 470.595 356.312 470.931 356.405C471.276 356.498 471.594 356.634 471.883 356.811C472.172 356.988 472.415 357.198 472.611 357.441L471.785 358.351C471.608 358.174 471.412 358.02 471.197 357.889C470.992 357.749 470.782 357.642 470.567 357.567C470.352 357.492 470.156 357.455 469.979 357.455C469.783 357.455 469.606 357.474 469.447 357.511C469.288 357.548 469.153 357.604 469.041 357.679C468.938 357.754 468.859 357.847 468.803 357.959C468.747 358.071 468.719 358.197 468.719 358.337C468.728 358.458 468.756 358.575 468.803 358.687C468.859 358.79 468.934 358.878 469.027 358.953C469.13 359.028 469.284 359.107 469.489 359.191C469.694 359.275 469.956 359.354 470.273 359.429C470.74 359.55 471.122 359.686 471.421 359.835C471.729 359.975 471.972 360.138 472.149 360.325C472.336 360.502 472.466 360.708 472.541 360.941C472.616 361.174 472.653 361.436 472.653 361.725C472.653 362.145 472.532 362.523 472.289 362.859C472.056 363.186 471.738 363.442 471.337 363.629C470.936 363.816 470.488 363.909 469.993 363.909ZM479.076 363.769V354.543H480.518V363.769H479.076ZM477.55 357.819V356.419H482.226V357.819H477.55ZM486.775 363.909C486.056 363.909 485.412 363.746 484.843 363.419C484.283 363.083 483.84 362.63 483.513 362.061C483.186 361.482 483.023 360.824 483.023 360.087C483.023 359.35 483.186 358.696 483.513 358.127C483.84 357.548 484.283 357.096 484.843 356.769C485.412 356.433 486.056 356.265 486.775 356.265C487.484 356.265 488.119 356.433 488.679 356.769C489.248 357.096 489.696 357.548 490.023 358.127C490.35 358.696 490.513 359.35 490.513 360.087C490.513 360.824 490.35 361.482 490.023 362.061C489.696 362.63 489.248 363.083 488.679 363.419C488.119 363.746 487.484 363.909 486.775 363.909ZM486.775 362.593C487.214 362.593 487.606 362.486 487.951 362.271C488.296 362.047 488.567 361.748 488.763 361.375C488.959 360.992 489.052 360.563 489.043 360.087C489.052 359.602 488.959 359.172 488.763 358.799C488.567 358.416 488.296 358.118 487.951 357.903C487.606 357.688 487.214 357.581 486.775 357.581C486.336 357.581 485.94 357.693 485.585 357.917C485.24 358.132 484.969 358.43 484.773 358.813C484.577 359.186 484.484 359.611 484.493 360.087C484.484 360.563 484.577 360.992 484.773 361.375C484.969 361.748 485.24 362.047 485.585 362.271C485.94 362.486 486.336 362.593 486.775 362.593ZM440.372 385.769V375.969H446.546V377.425H441.884V384.313H446.546V385.769H440.372ZM441.058 381.471V380.015H445.776V381.471H441.058ZM451.661 385.909C450.98 385.909 450.369 385.741 449.827 385.405C449.295 385.069 448.871 384.612 448.553 384.033C448.245 383.454 448.091 382.806 448.091 382.087C448.091 381.368 448.245 380.72 448.553 380.141C448.871 379.562 449.295 379.105 449.827 378.769C450.369 378.433 450.98 378.265 451.661 378.265C452.315 378.265 452.907 378.4 453.439 378.671C453.981 378.932 454.391 379.292 454.671 379.749L453.873 380.729C453.724 380.514 453.533 380.318 453.299 380.141C453.066 379.964 452.819 379.824 452.557 379.721C452.296 379.618 452.044 379.567 451.801 379.567C451.353 379.567 450.952 379.679 450.597 379.903C450.252 380.118 449.977 380.416 449.771 380.799C449.566 381.182 449.463 381.611 449.463 382.087C449.463 382.563 449.571 382.992 449.785 383.375C450 383.748 450.285 384.047 450.639 384.271C450.994 384.495 451.386 384.607 451.815 384.607C452.067 384.607 452.31 384.565 452.543 384.481C452.786 384.397 453.019 384.271 453.243 384.103C453.467 383.935 453.677 383.73 453.873 383.487L454.671 384.467C454.373 384.887 453.943 385.232 453.383 385.503C452.833 385.774 452.259 385.909 451.661 385.909ZM459.335 385.909C458.617 385.909 457.973 385.746 457.403 385.419C456.843 385.083 456.4 384.63 456.073 384.061C455.747 383.482 455.583 382.824 455.583 382.087C455.583 381.35 455.747 380.696 456.073 380.127C456.4 379.548 456.843 379.096 457.403 378.769C457.973 378.433 458.617 378.265 459.335 378.265C460.045 378.265 460.679 378.433 461.239 378.769C461.809 379.096 462.257 379.548 462.583 380.127C462.91 380.696 463.073 381.35 463.073 382.087C463.073 382.824 462.91 383.482 462.583 384.061C462.257 384.63 461.809 385.083 461.239 385.419C460.679 385.746 460.045 385.909 459.335 385.909ZM459.335 384.593C459.774 384.593 460.166 384.486 460.511 384.271C460.857 384.047 461.127 383.748 461.323 383.375C461.519 382.992 461.613 382.563 461.603 382.087C461.613 381.602 461.519 381.172 461.323 380.799C461.127 380.416 460.857 380.118 460.511 379.903C460.166 379.688 459.774 379.581 459.335 379.581C458.897 379.581 458.5 379.693 458.145 379.917C457.8 380.132 457.529 380.43 457.333 380.813C457.137 381.186 457.044 381.611 457.053 382.087C457.044 382.563 457.137 382.992 457.333 383.375C457.529 383.748 457.8 384.047 458.145 384.271C458.5 384.486 458.897 384.593 459.335 384.593ZM467.095 385.909C466.479 385.909 465.923 385.802 465.429 385.587C464.934 385.372 464.523 385.055 464.197 384.635L465.177 383.795C465.457 384.122 465.76 384.36 466.087 384.509C466.423 384.649 466.801 384.719 467.221 384.719C467.389 384.719 467.543 384.7 467.683 384.663C467.832 384.616 467.958 384.551 468.061 384.467C468.173 384.383 468.257 384.285 468.313 384.173C468.369 384.052 468.397 383.921 468.397 383.781C468.397 383.538 468.308 383.342 468.131 383.193C468.037 383.128 467.888 383.058 467.683 382.983C467.487 382.899 467.23 382.815 466.913 382.731C466.371 382.591 465.928 382.432 465.583 382.255C465.237 382.078 464.971 381.877 464.785 381.653C464.645 381.476 464.542 381.284 464.477 381.079C464.411 380.864 464.379 380.631 464.379 380.379C464.379 380.071 464.444 379.791 464.575 379.539C464.715 379.278 464.901 379.054 465.135 378.867C465.377 378.671 465.657 378.522 465.975 378.419C466.301 378.316 466.647 378.265 467.011 378.265C467.356 378.265 467.697 378.312 468.033 378.405C468.378 378.498 468.695 378.634 468.985 378.811C469.274 378.988 469.517 379.198 469.713 379.441L468.887 380.351C468.709 380.174 468.513 380.02 468.299 379.889C468.093 379.749 467.883 379.642 467.669 379.567C467.454 379.492 467.258 379.455 467.081 379.455C466.885 379.455 466.707 379.474 466.549 379.511C466.39 379.548 466.255 379.604 466.143 379.679C466.04 379.754 465.961 379.847 465.905 379.959C465.849 380.071 465.821 380.197 465.821 380.337C465.83 380.458 465.858 380.575 465.905 380.687C465.961 380.79 466.035 380.878 466.129 380.953C466.231 381.028 466.385 381.107 466.591 381.191C466.796 381.275 467.057 381.354 467.375 381.429C467.841 381.55 468.224 381.686 468.523 381.835C468.831 381.975 469.073 382.138 469.251 382.325C469.437 382.502 469.568 382.708 469.643 382.941C469.717 383.174 469.755 383.436 469.755 383.725C469.755 384.145 469.633 384.523 469.391 384.859C469.157 385.186 468.84 385.442 468.439 385.629C468.037 385.816 467.589 385.909 467.095 385.909ZM472.576 388.989L474.06 385.559L474.074 386.707L470.406 378.419H472.086L474.382 383.823C474.429 383.916 474.485 384.061 474.55 384.257C474.615 384.444 474.671 384.63 474.718 384.817L474.354 384.901C474.429 384.705 474.499 384.509 474.564 384.313C474.639 384.117 474.709 383.921 474.774 383.725L476.692 378.419H478.4L475.376 385.769L474.13 388.989H472.576ZM481.792 385.909C481.176 385.909 480.621 385.802 480.126 385.587C479.631 385.372 479.221 385.055 478.894 384.635L479.874 383.795C480.154 384.122 480.457 384.36 480.784 384.509C481.12 384.649 481.498 384.719 481.918 384.719C482.086 384.719 482.24 384.7 482.38 384.663C482.529 384.616 482.655 384.551 482.758 384.467C482.87 384.383 482.954 384.285 483.01 384.173C483.066 384.052 483.094 383.921 483.094 383.781C483.094 383.538 483.005 383.342 482.828 383.193C482.735 383.128 482.585 383.058 482.38 382.983C482.184 382.899 481.927 382.815 481.61 382.731C481.069 382.591 480.625 382.432 480.28 382.255C479.935 382.078 479.669 381.877 479.482 381.653C479.342 381.476 479.239 381.284 479.174 381.079C479.109 380.864 479.076 380.631 479.076 380.379C479.076 380.071 479.141 379.791 479.272 379.539C479.412 379.278 479.599 379.054 479.832 378.867C480.075 378.671 480.355 378.522 480.672 378.419C480.999 378.316 481.344 378.265 481.708 378.265C482.053 378.265 482.394 378.312 482.73 378.405C483.075 378.498 483.393 378.634 483.682 378.811C483.971 378.988 484.214 379.198 484.41 379.441L483.584 380.351C483.407 380.174 483.211 380.02 482.996 379.889C482.791 379.749 482.581 379.642 482.366 379.567C482.151 379.492 481.955 379.455 481.778 379.455C481.582 379.455 481.405 379.474 481.246 379.511C481.087 379.548 480.952 379.604 480.84 379.679C480.737 379.754 480.658 379.847 480.602 379.959C480.546 380.071 480.518 380.197 480.518 380.337C480.527 380.458 480.555 380.575 480.602 380.687C480.658 380.79 480.733 380.878 480.826 380.953C480.929 381.028 481.083 381.107 481.288 381.191C481.493 381.275 481.755 381.354 482.072 381.429C482.539 381.55 482.921 381.686 483.22 381.835C483.528 381.975 483.771 382.138 483.948 382.325C484.135 382.502 484.265 382.708 484.34 382.941C484.415 383.174 484.452 383.436 484.452 383.725C484.452 384.145 484.331 384.523 484.088 384.859C483.855 385.186 483.537 385.442 483.136 385.629C482.735 385.816 482.287 385.909 481.792 385.909ZM486.951 385.769V376.543H488.393V385.769H486.951ZM485.425 379.819V378.419H490.101V379.819H485.425ZM494.776 385.909C494.02 385.909 493.348 385.75 492.76 385.433C492.181 385.106 491.724 384.663 491.388 384.103C491.061 383.543 490.898 382.899 490.898 382.171C490.898 381.592 490.991 381.065 491.178 380.589C491.365 380.113 491.621 379.702 491.948 379.357C492.284 379.002 492.681 378.732 493.138 378.545C493.605 378.349 494.109 378.251 494.65 378.251C495.126 378.251 495.569 378.344 495.98 378.531C496.391 378.708 496.745 378.956 497.044 379.273C497.352 379.59 497.585 379.968 497.744 380.407C497.912 380.836 497.991 381.308 497.982 381.821L497.968 382.437H491.962L491.64 381.289H496.722L496.512 381.527V381.191C496.484 380.883 496.381 380.608 496.204 380.365C496.027 380.122 495.803 379.931 495.532 379.791C495.261 379.651 494.967 379.581 494.65 379.581C494.146 379.581 493.721 379.679 493.376 379.875C493.031 380.062 492.769 380.342 492.592 380.715C492.415 381.079 492.326 381.532 492.326 382.073C492.326 382.586 492.433 383.034 492.648 383.417C492.863 383.79 493.166 384.08 493.558 384.285C493.95 384.49 494.403 384.593 494.916 384.593C495.28 384.593 495.616 384.532 495.924 384.411C496.241 384.29 496.582 384.07 496.946 383.753L497.674 384.775C497.45 384.999 497.175 385.195 496.848 385.363C496.531 385.531 496.19 385.666 495.826 385.769C495.471 385.862 495.121 385.909 494.776 385.909ZM499.521 385.769V378.419H500.977V379.987L500.711 380.155C500.786 379.912 500.902 379.679 501.061 379.455C501.229 379.231 501.43 379.035 501.663 378.867C501.906 378.69 502.162 378.55 502.433 378.447C502.713 378.344 502.998 378.293 503.287 378.293C503.707 378.293 504.076 378.363 504.393 378.503C504.71 378.643 504.972 378.853 505.177 379.133C505.382 379.413 505.532 379.763 505.625 380.183L505.401 380.127L505.499 379.889C505.602 379.674 505.742 379.474 505.919 379.287C506.106 379.091 506.316 378.918 506.549 378.769C506.782 378.62 507.03 378.503 507.291 378.419C507.552 378.335 507.809 378.293 508.061 378.293C508.612 378.293 509.064 378.405 509.419 378.629C509.783 378.853 510.054 379.194 510.231 379.651C510.418 380.108 510.511 380.678 510.511 381.359V385.769H509.055V381.443C509.055 381.023 508.999 380.682 508.887 380.421C508.784 380.15 508.626 379.95 508.411 379.819C508.196 379.688 507.921 379.623 507.585 379.623C507.324 379.623 507.076 379.67 506.843 379.763C506.619 379.847 506.423 379.968 506.255 380.127C506.087 380.286 505.956 380.472 505.863 380.687C505.77 380.892 505.723 381.121 505.723 381.373V385.769H504.267V381.415C504.267 381.032 504.211 380.71 504.099 380.449C503.987 380.178 503.824 379.973 503.609 379.833C503.394 379.693 503.133 379.623 502.825 379.623C502.564 379.623 502.321 379.67 502.097 379.763C501.873 379.847 501.677 379.968 501.509 380.127C501.341 380.276 501.21 380.458 501.117 380.673C501.024 380.878 500.977 381.102 500.977 381.345V385.769H499.521ZM518.815 385.769L515.693 375.969H517.303L519.193 382.101C519.249 382.25 519.301 382.428 519.347 382.633C519.394 382.829 519.436 383.03 519.473 383.235C519.511 383.44 519.543 383.632 519.571 383.809C519.609 383.986 519.641 384.131 519.669 384.243L519.263 384.229C519.403 383.734 519.511 383.352 519.585 383.081C519.669 382.81 519.735 382.605 519.781 382.465C519.828 382.316 519.87 382.19 519.907 382.087L521.671 377.663H523.029L524.737 382.087C524.831 382.311 524.91 382.535 524.975 382.759C525.05 382.974 525.115 383.193 525.171 383.417C525.227 383.632 525.288 383.86 525.353 384.103L524.989 384.201C525.036 383.949 525.069 383.753 525.087 383.613C525.115 383.464 525.139 383.342 525.157 383.249C525.176 383.156 525.195 383.067 525.213 382.983C525.232 382.89 525.26 382.773 525.297 382.633C525.344 382.493 525.405 382.302 525.479 382.059L527.341 375.969H528.965L525.843 385.769H524.793L522.203 379.637L522.329 379.693L519.837 385.769H518.815ZM532.783 385.909C532.177 385.909 531.621 385.741 531.117 385.405C530.623 385.069 530.226 384.612 529.927 384.033C529.629 383.454 529.479 382.801 529.479 382.073C529.479 381.336 529.629 380.682 529.927 380.113C530.235 379.534 530.646 379.082 531.159 378.755C531.682 378.428 532.265 378.265 532.909 378.265C533.292 378.265 533.642 378.321 533.959 378.433C534.277 378.545 534.552 378.704 534.785 378.909C535.028 379.105 535.224 379.334 535.373 379.595C535.532 379.856 535.63 380.136 535.667 380.435L535.345 380.323V378.419H536.801V385.769H535.345V384.019L535.681 383.921C535.625 384.173 535.509 384.42 535.331 384.663C535.163 384.896 534.944 385.106 534.673 385.293C534.412 385.48 534.118 385.629 533.791 385.741C533.474 385.853 533.138 385.909 532.783 385.909ZM533.161 384.579C533.6 384.579 533.987 384.472 534.323 384.257C534.659 384.042 534.921 383.748 535.107 383.375C535.303 382.992 535.401 382.558 535.401 382.073C535.401 381.597 535.303 381.172 535.107 380.799C534.921 380.426 534.659 380.132 534.323 379.917C533.987 379.702 533.6 379.595 533.161 379.595C532.732 379.595 532.349 379.702 532.013 379.917C531.687 380.132 531.425 380.426 531.229 380.799C531.043 381.172 530.949 381.597 530.949 382.073C530.949 382.558 531.043 382.992 531.229 383.375C531.425 383.748 531.687 384.042 532.013 384.257C532.349 384.472 532.732 384.579 533.161 384.579ZM538.843 385.769V375.409H540.285V385.769H538.843ZM542.356 385.769V375.409H543.798V385.769H542.356ZM549.135 385.909C548.379 385.909 547.707 385.75 547.119 385.433C546.541 385.106 546.083 384.663 545.747 384.103C545.421 383.543 545.257 382.899 545.257 382.171C545.257 381.592 545.351 381.065 545.537 380.589C545.724 380.113 545.981 379.702 546.307 379.357C546.643 379.002 547.04 378.732 547.497 378.545C547.964 378.349 548.468 378.251 549.009 378.251C549.485 378.251 549.929 378.344 550.339 378.531C550.75 378.708 551.105 378.956 551.403 379.273C551.711 379.59 551.945 379.968 552.103 380.407C552.271 380.836 552.351 381.308 552.341 381.821L552.327 382.437H546.321L545.999 381.289H551.081L550.871 381.527V381.191C550.843 380.883 550.741 380.608 550.563 380.365C550.386 380.122 550.162 379.931 549.891 379.791C549.621 379.651 549.327 379.581 549.009 379.581C548.505 379.581 548.081 379.679 547.735 379.875C547.39 380.062 547.129 380.342 546.951 380.715C546.774 381.079 546.685 381.532 546.685 382.073C546.685 382.586 546.793 383.034 547.007 383.417C547.222 383.79 547.525 384.08 547.917 384.285C548.309 384.49 548.762 384.593 549.275 384.593C549.639 384.593 549.975 384.532 550.283 384.411C550.601 384.29 550.941 384.07 551.305 383.753L552.033 384.775C551.809 384.999 551.534 385.195 551.207 385.363C550.89 385.531 550.549 385.666 550.185 385.769C549.831 385.862 549.481 385.909 549.135 385.909ZM554.818 385.769V376.543H556.26V385.769H554.818ZM553.292 379.819V378.419H557.968V379.819H553.292Z" fill="white"/>
<defs>
<filter id="filter0_i_2116_90" x="130.382" y="64.6513" width="505.618" height="505.618" filterUnits="userSpaceOnUse" color-interpolation-filters="sRGB">
<feFlood flood-opacity="0" result="BackgroundImageFix"/>
<feBlend mode="normal" in="SourceGraphic" in2="BackgroundImageFix" result="shape"/>
<feColorMatrix in="SourceAlpha" type="matrix" values="0 0 0 0 0 0 0 0 0 0 0 0 0 0 0 0 0 0 127 0" result="hardAlpha"/>
<feOffset dx="-5.77189" dy="-19.6244"/>
<feGaussianBlur stdDeviation="2.30876"/>
<feComposite in2="hardAlpha" operator="arithmetic" k2="-1" k3="1"/>
<feColorMatrix type="matrix" values="0 0 0 0 0 0 0 0 0 0 0 0 0 0 0 0 0 0 0.15 0"/>
<feBlend mode="normal" in2="shape" result="effect1_innerShadow_2116_90"/>
</filter>
<linearGradient id="paint0_linear_2116_90" x1="17" y1="193.269" x2="250" y2="193.269" gradientUnits="userSpaceOnUse">
<stop offset="0.253219"/>
<stop offset="1" stop-color="#FC800B"/>
</linearGradient>
<linearGradient id="paint1_linear_2116_90" x1="349" y1="370.269" x2="592" y2="370.269" gradientUnits="userSpaceOnUse">
<stop offset="0.473251" stop-color="#080C17"/>
<stop offset="1" stop-color="white"/>
</linearGradient>
</defs>
</svg>
