<svg width="22" height="18" viewBox="0 0 22 18" fill="none" xmlns="http://www.w3.org/2000/svg">
<path d="M20.8606 2.19449C21.2875 3.29908 20.6888 4.05533 19.5301 4.80027C18.5951 5.40133 17.4039 6.05248 16.1417 7.16573C14.9044 8.25703 13.6968 9.57143 12.6237 10.8652C11.5549 12.1537 10.6465 13.3887 10.0046 14.3032C9.5898 14.8941 9.011 15.7756 9.011 15.7756C8.60281 16.4214 7.86895 16.8123 7.08206 16.8025C6.295 16.7927 5.57208 16.3839 5.18156 15.7278C4.18328 14.0507 3.41296 13.3884 3.05891 13.1505C2.11158 12.5139 1 12.4198 1 10.9362C1 9.75813 1.99489 8.80303 3.22216 8.80303C4.08862 8.83503 4.89398 9.17573 5.60756 9.65533C6.06369 9.96183 6.54689 10.3672 7.04948 10.9008C7.63934 10.0963 8.35016 9.16803 9.147 8.20743C10.3042 6.81243 11.6701 5.31582 13.1349 4.02389C14.5748 2.75388 16.2396 1.56508 18.0042 0.936544C19.1549 0.526704 20.4337 1.08991 20.8606 2.19449Z" fill="#FFBC00" stroke="#FF9D1F" stroke-width="1.5" stroke-linecap="round" stroke-linejoin="round"/>
</svg>
