<svg width="199" height="81" viewBox="0 0 199 81" fill="none" xmlns="http://www.w3.org/2000/svg">
<g clip-path="url(#clip0_2021_1915)">
<path d="M39.8976 34.4667L45.012 31.5608L29.2173 22.5569L25.4351 20.3975C25.0495 20.1786 24.6132 20.0646 24.1699 20.0669C23.7264 20.0693 23.2914 20.188 22.9082 20.4111C22.5249 20.6342 22.207 20.9537 21.9859 21.3382C21.7648 21.7225 21.6484 22.1583 21.6484 22.6016V53.3999C21.6486 53.8501 21.7688 54.2921 21.9966 54.6802C22.2245 55.0685 22.552 55.3889 22.9449 55.6085C23.3212 55.8214 23.7465 55.9324 24.1787 55.9302C24.6518 55.9354 25.1167 55.8068 25.5201 55.5593L37.9037 47.9592L34.117 45.6389C33.7881 45.4347 33.4874 45.1883 33.2229 44.9056L26.745 48.8756V26.9471L39.8976 34.4667Z" fill="#FF9D1F"/>
<path d="M63.8637 24.6629C63.4779 24.4396 63.04 24.3224 62.5941 24.3232C62.154 24.3237 61.7212 24.4376 61.3379 24.654L57.5467 26.8134L47.1168 32.7503L42.0023 35.6562L35.2517 39.4966C34.8816 39.7071 34.5706 40.0076 34.3477 40.3703C34.1246 40.7331 33.9967 41.1461 33.9758 41.5714C33.9547 41.9966 34.0415 42.4204 34.2278 42.8032C34.4141 43.1859 34.694 43.5157 35.0415 43.7615L35.1846 43.8555L39.8832 46.7301L61.253 59.8292C61.6369 60.0641 62.0767 60.1927 62.5269 60.2014C62.9769 60.2103 63.4214 60.0989 63.8142 59.879C64.2072 59.6591 64.5345 59.3386 64.7622 58.9502C64.9901 58.5619 65.1106 58.12 65.1111 57.6698V26.8669C65.1147 26.4226 65.0014 25.9848 64.7825 25.598C64.5636 25.2112 64.2467 24.8886 63.8637 24.6629ZM60.0593 53.1364L44.7294 43.7482L41.4883 41.7632L52.1015 35.7233L60.0593 31.1946V53.1364Z" fill="#FF9D1F"/>
<path d="M77.9016 50.168V34.9705H71.9082V31.4386H88.2296V34.9705H82.2361V50.168H77.9016ZM90.2674 50.168V35.7732H94.4414V50.168H90.2674ZM92.3544 33.7664C91.5875 33.7664 90.963 33.5435 90.4814 33.0975C89.9998 32.6515 89.759 32.0987 89.759 31.4386C89.759 30.7786 89.9998 30.2257 90.4814 29.7797C90.963 29.3338 91.5875 29.1108 92.3544 29.1108C93.1214 29.1108 93.7457 29.3249 94.2273 29.753C94.7089 30.1632 94.9497 30.6983 94.9497 31.3584C94.9497 32.054 94.7089 32.6338 94.2273 33.0975C93.7636 33.5435 93.1393 33.7664 92.3544 33.7664ZM101.606 50.168L96.4155 35.7732H100.349L104.656 48.1613H102.783L107.279 35.7732H110.81L115.172 48.1613H113.299L117.74 35.7732H121.433L116.215 50.168H112.175L108.349 39.5458H109.58L105.62 50.168H101.606ZM123.373 50.168V35.7732H127.547V50.168H123.373ZM125.46 33.7664C124.693 33.7664 124.069 33.5435 123.587 33.0975C123.106 32.6515 122.865 32.0987 122.865 31.4386C122.865 30.7786 123.106 30.2257 123.587 29.7797C124.069 29.3338 124.693 29.1108 125.46 29.1108C126.227 29.1108 126.851 29.3249 127.333 29.753C127.815 30.1632 128.055 30.6983 128.055 31.3584C128.055 32.054 127.815 32.6338 127.333 33.0975C126.869 33.5435 126.245 33.7664 125.46 33.7664ZM135.729 39.8669H144.719V43.3452H135.729V39.8669ZM136.05 50.168H131.715V31.4386H145.869V34.917H136.05V50.168ZM148.509 50.168V30.3149H152.683V50.168H148.509ZM156.557 50.168V35.7732H160.731V50.168H156.557ZM158.644 33.7664C157.877 33.7664 157.253 33.5435 156.771 33.0975C156.29 32.6515 156.049 32.0987 156.049 31.4386C156.049 30.7786 156.29 30.2257 156.771 29.7797C157.253 29.3338 157.877 29.1108 158.644 29.1108C159.411 29.1108 160.036 29.3249 160.517 29.753C160.999 30.1632 161.24 30.6983 161.24 31.3584C161.24 32.054 160.999 32.6338 160.517 33.0975C160.053 33.5435 159.429 33.7664 158.644 33.7664ZM162.786 50.168L169.233 41.7131L169.153 44.0141L162.973 35.7732H167.655L171.561 41.1512L169.795 41.2047L173.836 35.7732H178.277L172.07 43.9338V41.6863L178.491 50.168H173.755L169.662 44.4422L171.401 44.683L167.334 50.168H162.786Z" fill="#F3F3F3"/>
</g>
<defs>
<clipPath id="clip0_2021_1915">
<rect width="199" height="80.2689" fill="white"/>
</clipPath>
</defs>
</svg>
