<svg width="159" height="41" viewBox="0 0 159 41" fill="none" xmlns="http://www.w3.org/2000/svg">
<path d="M18.9424 14.5061L24.0946 11.5787L8.18331 2.50842L4.37323 0.333082C3.98476 0.112567 3.54524 -0.00232286 3.09865 3.55922e-05C2.65189 0.00239405 2.21372 0.122002 1.82761 0.346729C1.4415 0.571456 1.12125 0.893384 0.898549 1.28068C0.675843 1.6678 0.558594 2.10681 0.558594 2.5534V33.5791C0.558762 34.0326 0.679887 34.4778 0.909331 34.8688C1.13894 35.26 1.46879 35.5827 1.86467 35.8039C2.24371 36.0184 2.67211 36.1302 3.10758 36.128C3.58416 36.1333 4.05248 36.0037 4.45881 35.7544L16.9339 28.0982L13.1192 25.7608C12.7879 25.5551 12.485 25.3068 12.2185 25.0221L5.69278 29.0213V6.93103L18.9424 14.5061Z" fill="#FFBC00"/>
<path d="M43.0863 4.62926C42.6976 4.40436 42.2564 4.28627 41.8073 4.28711C41.3639 4.28762 40.9279 4.40234 40.5418 4.62033L36.7227 6.79567L26.2157 12.7764L21.0635 15.7037L14.2631 19.5724C13.8903 19.7845 13.5769 20.0873 13.3524 20.4526C13.1277 20.818 12.9988 21.2341 12.9777 21.6625C12.9565 22.0909 13.0439 22.5178 13.2316 22.9034C13.4193 23.289 13.7013 23.6212 14.0513 23.8689L14.1955 23.9635L18.9288 26.8594L40.4563 40.0551C40.843 40.2918 41.2861 40.4213 41.7396 40.4301C42.1929 40.439 42.6407 40.3268 43.0364 40.1053C43.4323 39.8838 43.762 39.5608 43.9914 39.1697C44.221 38.7785 44.3423 38.3333 44.3428 37.8798V6.84958C44.3465 6.40197 44.2323 5.96094 44.0118 5.57129C43.7913 5.18164 43.472 4.85668 43.0863 4.62926ZM39.2538 33.313L23.8108 23.8554L20.5457 21.8558L31.2372 15.7713L39.2538 11.2092V33.313Z" fill="#FFBC00"/>
<path d="M57.2271 30.323V15.0132H51.1895V11.4553H67.6313V15.0132H61.5936V30.323H57.2271ZM69.6841 30.323V15.8218H73.8889V30.323H69.6841ZM71.7865 13.8003C71.014 13.8003 70.3849 13.5757 69.8998 13.1265C69.4146 12.6772 69.172 12.1202 69.172 11.4553C69.172 10.7904 69.4146 10.2335 69.8998 9.7842C70.3849 9.33491 71.014 9.11035 71.7865 9.11035C72.5593 9.11035 73.1881 9.32598 73.6733 9.75724C74.1585 10.1705 74.401 10.7096 74.401 11.3745C74.401 12.0753 74.1585 12.6593 73.6733 13.1265C73.2061 13.5757 72.5773 13.8003 71.7865 13.8003ZM81.1066 30.323L75.8776 15.8218H79.8398L84.1794 28.3014H82.2926L86.8208 15.8218H90.3787L94.7722 28.3014H92.8854L97.3598 15.8218H101.079L95.8234 30.323H91.7534L87.899 19.6223H89.1389L85.1497 30.323H81.1066ZM103.034 30.323V15.8218H107.239V30.323H103.034ZM105.137 13.8003C104.364 13.8003 103.735 13.5757 103.25 13.1265C102.765 12.6772 102.522 12.1202 102.522 11.4553C102.522 10.7904 102.765 10.2335 103.25 9.7842C103.735 9.33491 104.364 9.11035 105.137 9.11035C105.909 9.11035 106.538 9.32598 107.023 9.75724C107.509 10.1705 107.751 10.7096 107.751 11.3745C107.751 12.0753 107.509 12.6593 107.023 13.1265C106.556 13.5757 105.927 13.8003 105.137 13.8003ZM115.481 19.9458H124.537V23.4498H115.481V19.9458ZM115.804 30.323H111.438V11.4553H125.696V14.9593H115.804V30.323ZM128.356 30.323V10.3233H132.561V30.323H128.356ZM136.463 30.323V15.8218H140.668V30.323H136.463ZM138.566 13.8003C137.793 13.8003 137.164 13.5757 136.679 13.1265C136.194 12.6772 135.951 12.1202 135.951 11.4553C135.951 10.7904 136.194 10.2335 136.679 9.7842C137.164 9.33491 137.793 9.11035 138.566 9.11035C139.338 9.11035 139.967 9.32598 140.452 9.75724C140.938 10.1705 141.18 10.7096 141.18 11.3745C141.18 12.0753 140.938 12.6593 140.452 13.1265C139.985 13.5757 139.356 13.8003 138.566 13.8003ZM142.738 30.323L149.233 21.8056L149.152 24.1236L142.926 15.8218H147.643L151.578 21.2395L149.799 21.2935L153.869 15.8218H158.343L152.09 24.0427V21.7786L158.559 30.323H153.788L149.664 24.5549L151.416 24.7974L147.319 30.323H142.738Z" fill="#F3F3F3"/>
</svg>
