<svg width="32" height="33" viewBox="0 0 32 33" fill="none" xmlns="http://www.w3.org/2000/svg">
<path d="M18.666 4.3363H13.3327C8.30436 4.3363 5.79022 4.3363 4.22811 5.8984C2.66602 7.4605 2.66602 9.97465 2.66602 15.003C2.66602 20.0312 2.66602 22.5455 4.22811 24.1075C5.79022 25.6696 8.30436 25.6696 13.3327 25.6696H18.666C23.6943 25.6696 26.2085 25.6696 27.7705 24.1075C29.3327 22.5455 29.3327 20.0312 29.3327 15.003C29.3327 9.97465 29.3327 7.4605 27.7705 5.8984C26.2085 4.3363 23.6943 4.3363 18.666 4.3363Z" stroke="#FFBC00" stroke-width="2" stroke-linecap="round"/>
<path d="M22.5333 21.003C22.5333 19.8247 23.4884 18.8696 24.6667 18.8696M18.2667 21.003C18.2667 17.4683 21.132 14.603 24.6667 14.603M14 21.003C14 15.1119 18.7756 10.3363 24.6667 10.3363" stroke="#FFBC00" stroke-width="2" stroke-linecap="round"/>
<path d="M24 25.6696L25.3333 28.3363" stroke="#FFBC00" stroke-width="2" stroke-linecap="round" stroke-linejoin="round"/>
<path d="M7.99935 25.6696L6.66602 28.3363" stroke="#FFBC00" stroke-width="2" stroke-linecap="round" stroke-linejoin="round"/>
</svg>
