<svg width="575" height="215" viewBox="0 0 575 215" fill="none" xmlns="http://www.w3.org/2000/svg">
<path d="M33.3613 0.743164C39.0954 0.712882 44.7393 2.18752 49.7275 5.01855V5.01953L99.7646 33.5879L307.588 152.058L241.429 189.647L67.7939 90.3779L66.6826 89.7422V382.454L67.8135 381.761L153.001 329.554C156.443 333.156 160.328 336.31 164.562 338.938L164.566 338.941L213.629 369.004L50.832 468.917C45.6151 472.118 39.602 473.782 33.4834 473.715H33.4717C27.8827 473.743 22.3837 472.307 17.5186 469.555L17.5146 469.553L17.041 469.282C12.1678 466.452 8.10349 462.41 5.24707 457.544C2.30075 452.523 0.745382 446.806 0.743164 440.982V33.5332C0.743164 27.7984 2.24862 22.1606 5.1084 17.1895C7.96832 12.216 12.0807 8.0812 17.0391 5.19531C21.9975 2.30939 27.6244 0.773503 33.3613 0.743164Z" stroke="url(#paint0_linear_2183_972)" stroke-width="1.48579"/>
<path d="M541.702 57.0522C547.469 57.0414 553.135 58.5571 558.125 61.4448C563.077 64.3651 567.174 68.5376 570.005 73.5396C572.748 78.387 574.21 83.8539 574.256 89.4165V497.47C574.249 503.294 572.692 509.011 569.743 514.034V514.035C566.889 518.901 562.827 522.945 557.954 525.779L557.479 526.049C552.557 528.805 547.006 530.243 541.372 530.226L540.826 530.22C535.003 530.108 529.313 528.444 524.346 525.405H524.347L241.633 352.11L179.473 314.08L177.619 312.863H177.62C173.125 309.683 169.504 305.417 167.094 300.465C164.684 295.514 163.561 290.032 163.834 284.532V284.531C164.096 279.202 165.657 274.021 168.378 269.437L168.645 268.995C171.528 264.303 175.552 260.415 180.339 257.692L269.647 206.885L269.646 206.884L337.309 168.442L337.31 168.441L475.293 89.8989H475.294L525.446 61.3315L525.447 61.3325C530.252 58.6201 535.657 57.1522 541.168 57.0571L541.702 57.0522ZM507.799 146.569L402.521 206.481L262.111 286.386L261.019 287.008L262.091 287.666L304.971 313.926L507.778 438.129L508.909 438.822V145.937L507.799 146.569Z" stroke="url(#paint1_linear_2183_972)" stroke-width="1.48579"/>
<defs>
<linearGradient id="paint0_linear_2183_972" x1="77.7987" y1="-234.41" x2="498.065" y2="-94.9276" gradientUnits="userSpaceOnUse">
<stop stop-color="#F9AC17"/>
<stop offset="1" stop-color="#FF5E01"/>
</linearGradient>
<linearGradient id="paint1_linear_2183_972" x1="266.739" y1="-178.201" x2="786.875" y2="51.7773" gradientUnits="userSpaceOnUse">
<stop stop-color="#F9AC17"/>
<stop offset="1" stop-color="#FF5E01"/>
</linearGradient>
</defs>
</svg>
